<svg aria-hidden="true" style="position:absolute;width:0;height:0;overflow:hidden" xmlns="http://www.w3.org/2000/svg">
  <defs>
    <symbol id="icon-comp1" viewBox="0 0 28 32">
      <path d="m4.085 0 4.771 4.517-8.857-.005v21.915h23.149v-8.379l4.766 4.512V.001H4.084zm18.854 17.517L9.411 4.71h13.528v12.807zm-4.2 5.703H3.663V8.482h1.066v13.74H18.74v.997zM7.224 29.345l-.557 1.147-.557-1.147h-.467l.813 1.529v.891h.422v-.891l.811-1.529h-.465zm.7 2.42.196-.564h.938l.197.564h.439l-.916-2.42H8.4l-.914 2.42h.437zm.664-1.906.351 1.004h-.701l.351-1.004zm2.218.945a.544.544 0 0 0-.091.303v.004c0 .204.072.37.214.497s.336.19.575.19a1 1 0 0 0 .618-.195l.136.161h.468l-.355-.421c.14-.191.209-.435.209-.733h-.351a.973.973 0 0 1-.101.444l-.468-.552.165-.12a.922.922 0 0 0 .249-.249l.002-.003a.53.53 0 0 0 .076-.275v-.013a.495.495 0 0 0-.169-.374h-.001a.61.61 0 0 0-.408-.157h-.025.001c-.195 0-.35.056-.465.166s-.173.259-.173.449c0 .078.018.157.054.241.038.083.104.184.197.302-.179.129-.3.24-.36.334zm1.092.536a.613.613 0 0 1-.382.136h-.02a.395.395 0 0 1-.27-.106.36.36 0 0 1-.108-.259v-.014.001c0-.129.067-.245.2-.346l.052-.037.528.624zm-.434-1.073c-.114-.141-.172-.257-.172-.351 0-.081.024-.148.07-.201a.239.239 0 0 1 .178-.081h.01-.001.009c.067 0 .127.026.173.068a.214.214 0 0 1 .072.161v.009a.3.3 0 0 1-.103.226l-.052.041-.184.127zm3.94 1.315c.166-.145.261-.347.286-.605h-.419c-.022.173-.075.296-.158.37s-.208.112-.372.112c-.18 0-.318-.069-.412-.206s-.14-.337-.14-.599v-.214c.003-.259.052-.453.15-.587a.494.494 0 0 1 .422-.201c.157 0 .276.039.357.116s.133.202.153.376h.419c-.027-.265-.121-.47-.285-.615s-.378-.218-.645-.218a.978.978 0 0 0-.525.142.925.925 0 0 0-.345.396l-.002.006a1.396 1.396 0 0 0-.122.576v.03-.001.226c.003.223.045.418.125.587s.193.298.339.39a.955.955 0 0 0 .511.136c.276 0 .497-.072.663-.216zm2.471-.339c.082-.18.123-.388.123-.625v-.158c0-.216-.047-.421-.131-.605l.004.009a.932.932 0 0 0-.35-.406l-.004-.002c-.152-.095-.326-.143-.524-.143s-.372.048-.525.144a.939.939 0 0 0-.354.414c-.079.175-.125.38-.125.595v.032-.002.136c.001.232.043.436.126.613a.95.95 0 0 0 .356.411.98.98 0 0 0 .525.143.971.971 0 0 0 .526-.143.941.941 0 0 0 .352-.413zm-.45-1.369c.102.143.152.349.152.618v.126c0 .272-.05.48-.151.622a.49.49 0 0 1-.429.213h-.017a.503.503 0 0 1-.413-.216l-.001-.002c-.104-.145-.155-.351-.155-.617v-.14c.002-.26.054-.462.156-.603a.498.498 0 0 1 .409-.215h.018-.001c.187 0 .33.072.431.214z"/>
    </symbol>
    <symbol id="icon-comp2" viewBox="0 0 25 32">
      <path d="M10.532 1.806h-.084a9.985 9.985 0 0 0-.388-.014h-.28c-.244 0-.494.006-.741.018l-.028-.001-.029.001h.001a17.353 17.353 0 0 0-6.576 1.696l.104-.045-.266.128v13.626l.623-.212a23.32 23.32 0 0 1 1.731-.513c1.488-.398 3.202-.638 4.967-.661h.014v1.79c-.223.001-.439.007-.655.018h-.052a20.051 20.051 0 0 0-3.971.619l.139-.031a19.399 19.399 0 0 0-4.666 1.83l.1-.051V2.529A17.896 17.896 0 0 1 5.14.608L5.267.58a17.862 17.862 0 0 1 4.51-.582h.267c.314.008.622.022.91.044.829.06 1.597.187 2.339.378l-.09-.02v1.762a13.17 13.17 0 0 0-2.134-.326l-.045-.003-.044-.004c-.152-.013-.304-.026-.446-.026zm3.101 1.801c.391.03.796.044 1.205.044a19.413 19.413 0 0 0 4.881-.639l-.135.03a19.492 19.492 0 0 0 4.665-1.831l-.101.051v17.163a17.972 17.972 0 0 1-4.664 1.921l-.127.028a17.962 17.962 0 0 1-4.511.581h-.115c-1.177 0-2.319-.147-3.409-.425l.095.021V3.276c.265.062.537.118.814.164.455.077.934.133 1.401.167zm8.734.133-.623.209c-.572.193-1.151.365-1.731.518-1.551.415-3.332.657-5.169.663h-.004c-.406 0-.78-.011-1.141-.034l-.497-.033V19.08l.426.037c.395.035.803.052 1.214.052a16.554 16.554 0 0 0 4.189-.553l-.116.026a16.96 16.96 0 0 0 3.285-1.189l-.102.044.266-.128V3.739zM1.684 25.977a.916.916 0 0 0-.661-.281l-.034.001h.002-.014c-.139 0-.272.028-.393.078l.007-.003a.904.904 0 0 0-.51.512l-.002.006a1.001 1.001 0 0 0-.071.386v2.335c-.006.164.026.328.092.479.055.12.135.226.234.313a.824.824 0 0 0 .32.166c.114.031.231.048.349.048a.985.985 0 0 0 .968-.982v-.261H1.36v.222c0 .07-.013.136-.037.198l.001-.004a.38.38 0 0 1-.089.132.426.426 0 0 1-.255.089.308.308 0 0 1-.286-.125l-.001-.001a.548.548 0 0 1-.082-.289l.001-.024v.001-2.177a.74.74 0 0 1 .075-.349.31.31 0 0 1 .262-.143l.038.002H.986h.012c.107 0 .201.052.26.131l.001.001a.493.493 0 0 1 .101.3v.014-.001.202h.604v-.249c0-.143-.027-.28-.077-.405l.003.007a.955.955 0 0 0-.205-.329zm3.626-.026a1.051 1.051 0 0 0-1.058-.191.965.965 0 0 0-.557.511l-.002.006a1.08 1.08 0 0 0-.089.452v2.239c-.004.158.026.314.089.458a.888.888 0 0 0 .236.313.964.964 0 0 0 .322.197 1.049 1.049 0 0 0 1.059-.198l-.001.001a.948.948 0 0 0 .23-.313c.063-.144.093-.301.089-.458v-2.259c0-.156-.033-.305-.092-.439l.003.007a1.016 1.016 0 0 0-.23-.327zm-.285 3.018.002.035a.398.398 0 0 1-.123.289.446.446 0 0 1-.575 0l.001.001a.398.398 0 0 1-.121-.326v.002-2.239l-.001-.034a.4.4 0 0 1 .123-.289.446.446 0 0 1 .575 0l-.001-.001a.398.398 0 0 1 .121.326v-.002 2.24zm5.047 1v-4.24h-.586l-.771 2.244h-.01l-.777-2.244h-.58v4.239h.606V27.39h.011l.593 1.823h.302l.598-1.823h.01v2.578h.606zm3.441-3.942a.834.834 0 0 0-.342-.232 1.31 1.31 0 0 0-.416-.066h-.024.001-.9v4.24h.604v-1.656h.311c.189.009.376-.031.545-.116a.88.88 0 0 0 .329-.32l.002-.004a1 1 0 0 0 .138-.369c.021-.133.033-.287.033-.444v-.04.002a2.426 2.426 0 0 0-.059-.606.906.906 0 0 0-.223-.39zm-.312 1.292a.538.538 0 0 1-.057.224l.001-.003a.342.342 0 0 1-.154.147l-.002.001a.617.617 0 0 1-.254.054l-.033-.001h.002-.276V26.3h.311l.029-.001c.088 0 .172.02.247.055l-.004-.002a.35.35 0 0 1 .141.154l.001.002a.62.62 0 0 1 .053.236v.282c0 .098.006.201 0 .291H13.2zm3.173-1.59h-.495l-.934 4.24h.604l.177-.911h.823l.178.911h.604l-.958-4.24zm-.557 2.752.297-1.537h.011l.295 1.537h-.604zm4.46-.198h-.011l-.912-2.554h-.581v4.24h.604v-2.55h.012l.923 2.549h.568v-4.239h-.604v2.554zm3.691-2.554-.486 1.686h-.012l-.486-1.686h-.639l.83 2.448v1.791h.604v-1.791l.83-2.447h-.64zM0 31.166h.291v.817h.198v-.817h.289v-.167H0v.168zm2.447-.168-.382.985h.21l.081-.224h.392l.084.224h.215l-.391-.985h-.21zm-.03.595.134-.365.134.365h-.268zm2.449.027h.228v.127a.378.378 0 0 1-.234.083h-.014a.25.25 0 0 1-.195-.094.406.406 0 0 1-.073-.234l.001-.023v.001c0-.219.095-.329.283-.329l.021-.001c.097 0 .178.067.201.157v.001l.194-.038c-.042-.192-.18-.289-.417-.289h-.013a.492.492 0 0 0-.331.127.48.48 0 0 0-.141.38v-.002.023c0 .132.048.254.127.347l-.001-.001c.087.09.209.146.343.146L4.877 32h-.001.016c.155 0 .296-.06.402-.157v-.388h-.426v.166zm2.471-.622h-.199v.985h.689v-.167h-.49v-.817zm2.089 0h-.199v.985h.199v-.985zm2.043.657-.404-.657h-.193v.985h.185v-.643l.396.643h.198v-.985h-.182v.658zm1.846-.106h.49v-.167h-.49v-.215h.527v-.168h-.727v.985h.747v-.167h-.548v-.266zm4.477-.163h-.388v-.388h-.197v.984h.197v-.431h.388v.431h.198v-.985h-.198v.388zm1.857.163h.492v-.167h-.492v-.215h.529v-.168h-.726v.985h.746v-.167h-.548v-.266zm2.519.001c.171-.027.258-.118.258-.274a.23.23 0 0 0-.096-.219h-.001a.555.555 0 0 0-.25-.059l-.04.001h.002-.417v.984h.198v-.412h.055c.039 0 .076.008.109.023l-.002-.001a.201.201 0 0 1 .07.072l.215.313h.236l-.12-.192a.704.704 0 0 0-.215-.235l-.002-.002zm-.199-.137h-.146v-.247h.156a.515.515 0 0 1 .205.024l-.004-.001a.13.13 0 0 1-.009.2.537.537 0 0 1-.164.025l-.039-.001h.002zm2.099.136h.49v-.167h-.49v-.215h.529v-.168h-.729v.985h.747v-.167h-.548v-.266z"/>
    </symbol>
    <symbol id="icon-comp3" viewBox="0 0 65 32">
      <path d="M10.016 9.983h-.002c-1.827 0-3.308 1.316-3.308 2.94v.002c0 1.624 1.481 2.94 3.308 2.94h.002c1.827 0 3.308-1.317 3.308-2.94v-.002c0-1.624-1.481-2.941-3.308-2.941zm24.418-.939c-.005-2.255-1.016-4.418-2.81-6.012S27.398.539 24.861.534c-2.539.004-4.972.902-6.767 2.497s-2.806 3.757-2.811 6.013v12.437s19.15-1.896 19.152-12.434v-.002zM0 25.562c.005 1.57.709 3.073 1.957 4.183s2.94 1.735 4.706 1.739c1.765-.005 3.457-.63 4.706-1.739s1.952-2.613 1.957-4.181V16.91S.002 18.23.002 25.562zm6.662 1.55c-.345 0-.682-.091-.969-.261a1.617 1.617 0 0 1-.638-.686l-.004-.009a1.394 1.394 0 0 1-.097-.904l-.002.009a1.5 1.5 0 0 1 .477-.794 1.81 1.81 0 0 1 .882-.423l.011-.002a1.939 1.939 0 0 1 1.021.092l-.013-.004c.319.117.592.316.783.571s.294.555.294.861c.001.204-.043.407-.131.596a1.555 1.555 0 0 1-.376.503l-.002.001a1.77 1.77 0 0 1-.567.338 1.907 1.907 0 0 1-.668.119h-.001v-.006zm12.18-2.776v3.25h-.67v-3.251h.67zm1.295 1.389v.522h-1.478v-.522h1.478zm.156-1.389v.525h-1.634v-.525h1.634zm3.058 1.55v.154c0 .247-.034.469-.101.665a1.459 1.459 0 0 1-.285.504l.002-.002a1.224 1.224 0 0 1-.437.315c-.168.073-.355.11-.56.11s-.391-.037-.561-.11a1.264 1.264 0 0 1-.436-.314l-.001-.001a1.473 1.473 0 0 1-.285-.492l-.003-.01a2.01 2.01 0 0 1-.101-.636v-.03.002-.155c0-.248.034-.47.101-.665s.162-.363.283-.502c.119-.134.265-.241.429-.314l.008-.003c.17-.073.357-.109.561-.109.206 0 .392.036.56.109.17.073.315.179.437.317.123.139.219.306.286.503.069.194.103.416.103.665zm-.677.154v-.158c0-.173-.015-.325-.046-.456a.99.99 0 0 0-.141-.334l.002.004a.617.617 0 0 0-.22-.199l-.003-.002a.627.627 0 0 0-.29-.069h-.012.001a.643.643 0 0 0-.302.069.62.62 0 0 0-.22.199l-.001.002a1.004 1.004 0 0 0-.134.324l-.001.007c-.03.129-.047.278-.047.43v.027-.001.158c0 .171.015.322.047.455.03.131.077.242.138.333a.623.623 0 0 0 .22.201l.003.002c.088.046.188.069.302.069s.213-.023.301-.069a.609.609 0 0 0 .22-.201l.001-.002a1.04 1.04 0 0 0 .135-.326l.001-.007a2.07 2.07 0 0 0 .046-.455zm2.851.696v-.007a.423.423 0 0 0-.028-.152l.001.003a.299.299 0 0 0-.094-.129h-.001a.86.86 0 0 0-.188-.117l-.005-.002a2.559 2.559 0 0 0-.304-.115l-.019-.005a4.093 4.093 0 0 1-.445-.17l.026.01a1.737 1.737 0 0 1-.352-.211l.004.003a.93.93 0 0 1-.234-.274l-.002-.005a.758.758 0 0 1-.085-.353v-.017.001-.01c0-.131.033-.254.091-.362l-.002.004a.842.842 0 0 1 .25-.286c.107-.081.234-.142.379-.185a1.73 1.73 0 0 1 .485-.065c.24 0 .449.043.627.13s.317.204.415.354c.1.151.15.322.15.516h-.665v-.01a.503.503 0 0 0-.062-.242l.001.003a.412.412 0 0 0-.176-.17l-.002-.001a.627.627 0 0 0-.277-.064h-.023.001-.022a.707.707 0 0 0-.272.055l.005-.002a.394.394 0 0 0-.174.14l-.001.001a.345.345 0 0 0-.058.192v.005c0 .055.014.105.04.149.034.05.075.091.123.124l.002.001c.055.039.122.076.203.11s.174.068.28.101c.177.053.332.114.466.181.136.067.248.142.339.226s.16.178.206.283.069.226.069.36l.001.031a.779.779 0 0 1-.32.63l-.002.002a1.11 1.11 0 0 1-.373.176c-.14.039-.3.061-.466.061h-.019.001-.001a1.83 1.83 0 0 1-.488-.066l.013.003a1.447 1.447 0 0 1-.432-.198l.005.003a.997.997 0 0 1-.301-.326l-.003-.005a.949.949 0 0 1-.114-.475h.672c0 .101.015.187.047.257a.43.43 0 0 0 .13.169l.001.001a.558.558 0 0 0 .202.093l.004.001c.08.019.168.029.264.029h.023a.698.698 0 0 0 .267-.052l-.005.002a.353.353 0 0 0 .223-.328v-.005zm2.578-2.4v3.25h-.667v-3.251h.667zm1 0v.525h-2.651v-.525h2.651zm2.563 2.728v.523h-1.73v-.523h1.73zm-1.511-2.728v3.25h-.67v-3.251h.67zm1.285 1.324v.509h-1.504v-.509h1.504zm.223-1.324v.525h-1.727v-.525h1.727zm.393 0h1.211c.249 0 .462.038.642.112s.318.184.414.33a.95.95 0 0 1 .145.538c0 .174-.029.324-.088.45a.852.852 0 0 1-.246.309l-.002.001c-.107.081-.23.148-.364.193l-.009.003-.212.112h-1.054l-.005-.523h.806a.617.617 0 0 0 .274-.064l-.004.002a.405.405 0 0 0 .173-.172l.001-.002a.53.53 0 0 0 .06-.247v-.013.001-.016a.573.573 0 0 0-.06-.258l.002.003a.39.39 0 0 0-.175-.173l-.002-.001a.636.636 0 0 0-.276-.061h-.023.001-.542v2.726h-.67v-3.251zm1.818 3.25-.741-1.448.708-.005.75 1.422v.03h-.716zm3.515-1.158h-.828v-.523h.828l.027.001a.67.67 0 0 0 .29-.065l-.004.002a.407.407 0 0 0 .176-.177l.001-.002a.644.644 0 0 0-.002-.53l.002.004a.454.454 0 0 0-.175-.2l-.002-.001a.576.576 0 0 0-.288-.077l-.026.001h.001-.596v2.726h-.67v-3.25h1.266c.254 0 .472.046.654.139.183.091.323.216.42.377s.145.344.145.552a1 1 0 0 1-.145.545c-.097.152-.236.271-.419.354s-.4.125-.655.125zm3.861.636v.523h-1.73v-.523h1.73zm-1.511-2.728v3.25h-.67v-3.251h.67zm1.286 1.324v.509h-1.504v-.509h1.504zm.223-1.324v.525h-1.727v-.525h1.727zm1.891 0v3.25h-.667v-3.251h.667zm1 0v.525h-2.651v-.525h2.651zm2.563 2.728v.523h-1.73v-.523h1.73zm-1.512-2.728v3.25h-.67v-3.251h.67zm1.286 1.325v.509h-1.505v-.509h1.505zm.223-1.324v.525h-1.728v-.525h1.728zm.393 0h1.213c.248 0 .462.038.64.112.181.074.319.184.416.33s.145.325.145.538c0 .174-.03.324-.089.45a.86.86 0 0 1-.246.309l-.002.001a1.27 1.27 0 0 1-.364.193l-.009.003-.212.112H47.53l-.004-.523h.805a.617.617 0 0 0 .274-.064l-.004.002a.416.416 0 0 0 .173-.172l.001-.002a.536.536 0 0 0 .061-.249v-.011.001-.014a.598.598 0 0 0-.06-.26l.002.003a.393.393 0 0 0-.174-.173l-.002-.001a.639.639 0 0 0-.276-.061h-.023.001-.542v2.726h-.67v-3.252zm1.817 3.25-.741-1.448.709-.005.749 1.422v.03h-.716zm2.804-.85v-.007a.423.423 0 0 0-.028-.152l.001.003a.305.305 0 0 0-.093-.129h-.001a.844.844 0 0 0-.189-.117l-.005-.002a2.559 2.559 0 0 0-.304-.115l-.019-.005a4.093 4.093 0 0 1-.445-.17l.026.01a1.746 1.746 0 0 1-.353-.211l.004.003a.93.93 0 0 1-.234-.274l-.002-.005a.758.758 0 0 1-.086-.353v-.017.001-.01c0-.131.033-.254.091-.362l-.002.004a.845.845 0 0 1 .251-.286c.107-.081.233-.142.379-.185s.309-.065.484-.065c.24 0 .45.043.627.13a.998.998 0 0 1 .415.354c.1.151.15.322.15.516h-.665v-.01a.503.503 0 0 0-.062-.242l.001.003a.412.412 0 0 0-.176-.17l-.002-.001a.627.627 0 0 0-.277-.064h-.023.001-.023a.707.707 0 0 0-.272.055l.005-.002a.388.388 0 0 0-.174.14l-.001.001a.345.345 0 0 0-.058.192v.005c0 .055.014.105.04.149.034.05.075.091.123.124l.002.001c.055.039.123.076.203.11s.173.068.279.101c.177.053.332.114.466.181.136.067.248.142.339.226s.16.178.206.283.069.226.069.36a.78.78 0 0 1-.32.662c-.104.078-.229.136-.373.176s-.305.061-.484.061c-.161 0-.32-.021-.475-.062a1.447 1.447 0 0 1-.432-.198l.005.003a.997.997 0 0 1-.301-.326l-.003-.005a.949.949 0 0 1-.114-.475h.672c0 .101.015.187.047.257a.43.43 0 0 0 .13.169l.001.001a.558.558 0 0 0 .202.093l.004.001c.081.019.168.029.264.029h.023a.698.698 0 0 0 .267-.052l-.005.002a.353.353 0 0 0 .223-.328v-.005z"/>
    </symbol>
    <symbol id="icon-comp4" viewBox="0 0 34 32">
      <path d="M5.643 31.315c.012 0 .024.003.035.008s.021.011.03.018l.166.158c-.13.129-.289.232-.468.302a1.78 1.78 0 0 1-.62.109l-.045-.001h.002a1.742 1.742 0 0 1-.622-.101 1.365 1.365 0 0 1-.47-.286l.001.001a1.294 1.294 0 0 1-.301-.432l-.003-.008a1.442 1.442 0 0 1-.106-.548v-.018.001-.029c0-.388.168-.737.436-.977l.001-.001a1.52 1.52 0 0 1 .498-.287 1.96 1.96 0 0 1 .642-.101h.04c.199 0 .39.034.568.096l-.012-.004c.165.062.316.149.447.255l-.139.169a.143.143 0 0 1-.035.03h-.001a.098.098 0 0 1-.048.013h-.008a.132.132 0 0 1-.062-.018h.001l-.074-.046-.104-.058a1.182 1.182 0 0 0-.321-.1l-.007-.001a1.376 1.376 0 0 0-.23-.018h-.019.001-.015c-.16 0-.313.028-.455.079l.009-.003a1.07 1.07 0 0 0-.363.214l.001-.001a.977.977 0 0 0-.235.339 1.117 1.117 0 0 0-.085.432v.017-.001.019c0 .157.031.307.088.444l-.003-.008a.953.953 0 0 0 .576.548c.136.049.281.073.427.072.085.001.17-.004.254-.014.211-.022.4-.106.55-.234l-.001.001a.133.133 0 0 1 .078-.029zm4.798-.798v.017c0 .197-.041.384-.116.553l.003-.009a1.24 1.24 0 0 1-.311.435l-.001.001c-.138.123-.302.22-.481.283l-.01.003a2.03 2.03 0 0 1-1.278-.004l.014.004a1.471 1.471 0 0 1-.489-.288l.001.001a1.28 1.28 0 0 1-.313-.432l-.003-.008a1.454 1.454 0 0 1 .004-1.134l-.004.01c.071-.165.178-.315.316-.442a1.45 1.45 0 0 1 .488-.277 2.003 2.003 0 0 1 1.278.004l-.014-.004c.184.065.351.162.49.286a1.296 1.296 0 0 1 .426 1zm-.436 0v-.024a1.19 1.19 0 0 0-.082-.436l.003.008a.935.935 0 0 0-.566-.548l-.007-.002a1.455 1.455 0 0 0-.928.003l.01-.003a.997.997 0 0 0-.352.214.914.914 0 0 0-.223.331l-.002.006a1.321 1.321 0 0 0 .003.911l-.003-.009c.101.261.309.46.569.547l.007.002c.296.097.622.097.918 0a.97.97 0 0 0 .35-.211.933.933 0 0 0 .222-.338c.056-.145.082-.298.079-.451zm3.71.473.043.101c.017-.036.031-.069.048-.101.019-.039.037-.072.056-.103l-.002.004 1.061-1.677c.021-.029.04-.047.061-.053s.047-.009.073-.009h.015-.001.314v2.728h-.372v-2.09a.68.68 0 0 1 0-.096v.002l-1.069 1.701a.158.158 0 0 1-.062.061h-.001a.19.19 0 0 1-.09.023h-.064a.183.183 0 0 1-.09-.023h.001a.15.15 0 0 1-.061-.061v-.001l-1.099-1.711v2.189h-.359v-2.722h.328c.026 0 .051.003.075.01h-.002c.026.011.046.03.058.053l1.084 1.678c.02.028.038.06.053.094l.001.004zm3.995-.135v1.021h-.414v-2.723h.926c.175-.003.349.018.517.059.134.034.259.091.366.17.089.07.159.16.205.262l.002.004c.05.111.073.23.071.349v.017a.755.755 0 0 1-.299.603l-.002.001a1.062 1.062 0 0 1-.368.18c-.14.04-.301.064-.468.064h-.035l-.501-.008zm0-.293h.503c.109.002.218-.013.322-.041a.69.69 0 0 0 .234-.119l-.002.001a.522.522 0 0 0 .191-.404v-.007l.001-.029a.453.453 0 0 0-.043-.195l.001.003a.529.529 0 0 0-.144-.185l-.001-.001a.888.888 0 0 0-.562-.146h.003-.503v1.122zm5.584 1.318h-.334a.15.15 0 0 1-.086-.026h.001a.161.161 0 0 1-.054-.062v-.001l-.282-.658H21.12l-.293.658a.156.156 0 0 1-.141.088h-.333l1.246-2.728h.432l1.263 2.728zm-2.057-1.013h1.172l-.494-1.11a1.875 1.875 0 0 1-.094-.256l-.048.142a.876.876 0 0 1-.046.116l-.49 1.108zm3.852-1.701a.173.173 0 0 1 .062.048l1.818 2.056v-2.117h.372v2.728h-.212a.204.204 0 0 1-.082-.017h.001a.221.221 0 0 1-.066-.05l-1.816-2.054.001.047-.002.049v-.002 2.027h-.372v-2.728h.22c.025 0 .051.005.075.013zm5.313 1.629v1.083h-.415v-1.082l-1.149-1.643h.381a.16.16 0 0 1 .081.023h-.001a.234.234 0 0 1 .056.062l.718 1.06a1.159 1.159 0 0 1 .128.241l.053-.117c.021-.043.044-.084.071-.124l.709-1.067a.293.293 0 0 1 .053-.058.137.137 0 0 1 .082-.027h.384l-1.15 1.65zm-16.893-6.219c.181.02.363.036.549.05 2.803-1.09 5.174-2.872 6.818-5.126s2.485-4.878 2.421-7.546l-3.09-2.683c.629 2.84.335 5.775-.848 8.478s-3.208 5.067-5.849 6.827z"/>
      <path d="m12.407 24.451.083.015c2.822-1.755 4.973-4.203 6.176-7.031s1.402-5.904.571-8.83l-4.4-3.822c1.779 3.142 2.496 6.659 2.065 10.141-.43 3.482-1.989 6.786-4.495 9.528zm14.921-9.345c-.747 2.931-2.563 5.574-5.177 7.538a16.213 16.213 0 0 1-2.367 1.49l-.092.043c2.129-.543 4.085-1.504 5.718-2.808s2.901-2.917 3.703-4.714l-1.784-1.549z"/>
      <path d="m26.628 14.674-2.54-2.207c-.049 2.517-.872 4.976-2.385 7.122s-3.66 3.902-6.217 5.084h.012c.57 0 1.139-.03 1.705-.088 2.39-.848 4.502-2.197 6.146-3.926s2.771-3.785 3.278-5.985zM12.774 3.17 9.743.534c-2.709.91-5.039 2.509-6.686 4.588S.526 9.664.518 12.188c.01 2.789 1.09 5.495 3.07 7.69 1.979 2.194 4.744 3.754 7.858 4.43 2.779-2.942 4.407-6.578 4.646-10.379s-.924-7.57-3.319-10.758zM33.63 14.268c-.011-3.308-1.528-6.478-4.221-8.818s-6.342-3.658-10.15-3.668h-.028c-1.831 0-3.59.305-5.231.867l.114-.034L32.67 18.737c.605-1.313.958-2.849.96-4.468v-.001z"/>
    </symbol>
    <symbol id="icon-comp5" viewBox="0 0 43 32">
      <path d="M3.239 26.373a.98.98 0 0 1 .25.665.964.964 0 0 1-.092.466l.003-.006a1.057 1.057 0 0 1-.296.378l-.002.002a1.776 1.776 0 0 1-1.13.306h.006H.001V23.97h1.936a1.76 1.76 0 0 1 1.08.283l-.007-.004a.981.981 0 0 1 .289.354.893.893 0 0 1 .086.436.92.92 0 0 1-.225.644c-.15.168-.358.283-.59.33.262.044.499.172.667.361zM.92 25.737h.828a.843.843 0 0 0 .526-.14.516.516 0 0 0 .14-.184l.001-.003a.46.46 0 0 0 .038-.185l-.002-.042v.002l.001-.035a.475.475 0 0 0-.04-.192l.001.003a.51.51 0 0 0-.138-.187l-.001-.001a.845.845 0 0 0-.545-.142h.003-.815v1.106zm1.435 1.616a.527.527 0 0 0 .151-.19l.001-.003a.472.472 0 0 0 .044-.202l-.001-.035v.002l.001-.031a.49.49 0 0 0-.047-.21l.001.003a.534.534 0 0 0-.154-.193l-.001-.001a.898.898 0 0 0-.565-.152h.003H.92v1.16h.88a.94.94 0 0 0 .556-.146zm4.842.832-1.076-1.648h-.405v1.648h-.927V23.97h1.755a1.824 1.824 0 0 1 1.225.362l-.005-.003a1.293 1.293 0 0 1 .42.938c0 .307-.109.589-.291.808l.002-.002a1.461 1.461 0 0 1-.829.427l-.008.001 1.147 1.684H7.197zm-1.482-2.222h.758c.526 0 .79-.212.79-.638l.001-.034a.58.58 0 0 0-.045-.225l.001.004a.628.628 0 0 0-.15-.218.865.865 0 0 0-.6-.171h.003-.767l.009 1.283zm6.547 1.373h-1.846l-.326.849h-.972l1.695-4.168h1.051l1.689 4.168h-.971l-.319-.848zm-.247-.638-.675-1.779-.675 1.779h1.349zm6.587 1.487h-.919l-2.063-2.866v2.866h-.918v-4.216h.918l2.063 2.883v-2.883h.919v4.216zm5.25-1.009c-.191.318-.48.577-.833.744a2.883 2.883 0 0 1-1.219.267l-.079-.001h.004-1.637v-4.215h1.637l.077-.001c.441 0 .859.096 1.235.267l-.019-.008c.352.163.642.419.832.735.189.343.288.722.288 1.106s-.099.763-.288 1.106zm-1.052-.101c.25-.261.404-.616.406-1.006 0-.369-.144-.726-.406-1.006a1.681 1.681 0 0 0-1.157-.358h.005-.639v2.729h.639a1.69 1.69 0 0 0 1.156-.361l-.004.003zM12.838.522s11.873 4.104 11.621 10.043V20.61s-11.864-4.106-11.617-10.045L12.838.522zm22.199 17.737a17.218 17.218 0 0 1 7.544-2.545v-3.146c-3.12 1.102-5.767 3.098-7.544 5.691z"/>
      <path d="M33.69 19.207c1.835-3.384 5.017-5.995 8.891-7.297V2.849S25.672 8.695 26.029 17.153v14.302s.754-.261 1.939-.752c0-.457 0-.918.054-1.382.349-3.926 2.388-7.564 5.667-10.115z"/>
      <path d="M32.082 24.52a13.62 13.62 0 0 1 .592-2.928c-2.043 2.203-3.279 4.936-3.536 7.816-.025.272-.039.543-.045.824a47.103 47.103 0 0 0 3.524-1.703l-.273.133a13.57 13.57 0 0 1-.263-4.142zm.672.051a13.013 13.013 0 0 0 .224 3.835l-.015-.084c4.62-2.531 9.811-6.442 9.61-11.168v-.412c-3.301.338-6.388 1.659-8.79 3.76a12.808 12.808 0 0 0-1.026 4.019l-.004.051z"/>
    </symbol>
    <symbol id="icon-comp6" viewBox="0 0 67 32">
      <path d="M33.724 15.223a2.084 2.084 0 0 1-.43-1.42v.006-2.051c0-.628.142-1.106.428-1.433.284-.327.774-.489 1.468-.488.652 0 1.116.139 1.389.417.299.355.444.789.411 1.226v.482h-1.166v-.489a2.465 2.465 0 0 0-.034-.477.464.464 0 0 0-.166-.283l-.001-.001a.672.672 0 0 0-.373-.112l-.052.002h.002a.712.712 0 0 0-.447.118l.003-.002a.546.546 0 0 0-.193.309l-.001.004c-.03.14-.047.302-.047.467v.042-.002 2.488c-.019.24.033.48.149.698a.55.55 0 0 0 .23.168l.004.001a.633.633 0 0 0 .305.039H35.2a.63.63 0 0 0 .414-.114l-.002.001a.503.503 0 0 0 .174-.299v-.003c.027-.165.04-.332.036-.498v-.505h1.167v.461a1.866 1.866 0 0 1-.406 1.293l.003-.004c-.268.304-.725.457-1.397.457s-1.179-.163-1.466-.501zm4.859.022c-.295-.32-.442-.784-.442-1.399v-2.157c0-.609.147-1.07.442-1.383s.787-.469 1.478-.467c.686 0 1.176.156 1.471.467.294.313.444.774.444 1.383v2.156c0 .609-.149 1.077-.449 1.398s-.787.481-1.466.481-1.181-.163-1.479-.479zm2.021-.518c.106-.199.154-.419.14-.638v-2.641a1.18 1.18 0 0 0-.14-.632l.003.006a.558.558 0 0 0-.234-.17l-.004-.001a.622.622 0 0 0-.312-.037h.003a.643.643 0 0 0-.313.038l.004-.002a.569.569 0 0 0-.239.171l-.001.001c-.107.195-.154.41-.14.626V14.1c-.014.22.033.439.14.639a.732.732 0 0 0 .246.158.832.832 0 0 0 .605-.002l-.006.002a.723.723 0 0 0 .246-.158v-.013zm2.777-4.825h1.256l.944 3.979.967-3.979h1.222l.124 5.743h-.904l-.097-3.991-.932 3.991h-.725l-.966-4.006-.09 4.006h-.913l.114-5.743zm5.92 0h1.957c1.127 0 1.691.543 1.691 1.631 0 1.041-.594 1.562-1.781 1.56h-.666v2.552h-1.208l.007-5.744zm1.672 2.454a.93.93 0 0 0 .665-.182.928.928 0 0 0 .174-.649l.001-.063c0-.163-.022-.321-.062-.471l.003.013a.43.43 0 0 0-.089-.158.502.502 0 0 0-.149-.114l-.003-.001a1.24 1.24 0 0 0-.476-.094l-.066.002h.003-.469v1.717h.469zm3.719-2.454h1.297l1.331 5.743h-1.126l-.263-1.324h-1.157l-.27 1.324h-1.143l1.331-5.743zm1.108 3.753-.452-2.411-.452 2.411h.903zm2.594-3.753h.846l1.618 3.276V9.902h1.003v5.743h-.804l-1.628-3.42v3.42h-1.036l.002-5.743zm5.815 3.552-1.345-3.545h1.133l.821 2.278.77-2.278h1.109l-1.329 3.546v2.19h-1.159v-2.19zM35.59 18.156v.3h-.986v2.334h-.413v-2.334H33.2v-.3h2.389zm3.089 2.634h-.328a.141.141 0 0 1-.081-.025.137.137 0 0 1-.052-.06v-.001l-.285-.626h-1.367l-.284.626a.168.168 0 0 1-.044.071.144.144 0 0 1-.082.025h-.326l1.208-2.634h.42l1.223 2.624zm-2-.978h1.14l-.484-1.072a1.765 1.765 0 0 1-.086-.235l-.003-.014-.045.14-.044.11-.478 1.07zm4.083.719c.076.004.151.004.228 0a1.41 1.41 0 0 0 .193-.031c.059-.012.117-.028.174-.048.053-.018.107-.042.161-.065v-.592h-.487a.095.095 0 0 1-.061-.022.06.06 0 0 1-.018-.021.048.048 0 0 1-.006-.024V19.523h.937v1.01a1.792 1.792 0 0 1-.496.211l-.013.003c-.1.026-.2.043-.302.055a3.774 3.774 0 0 1-.353.016h-.015c-.212 0-.416-.036-.606-.102l.013.004a1.499 1.499 0 0 1-.486-.277l.002.002a1.276 1.276 0 0 1-.308-.409l-.003-.008a1.3 1.3 0 0 1-.111-.529v-.019.001-.016c0-.193.04-.377.112-.543l-.003.009c.069-.156.176-.299.311-.417.138-.119.302-.211.484-.273.206-.068.427-.101.647-.098.112 0 .225.007.336.023a1.62 1.62 0 0 1 .529.172c.074.041.144.087.211.137l-.116.163a.101.101 0 0 1-.039.035h-.001a.112.112 0 0 1-.055.014.156.156 0 0 1-.075-.021h.001a1.595 1.595 0 0 1-.126-.066l.007.004a1.098 1.098 0 0 0-.154-.069l-.008-.002a1.522 1.522 0 0 0-.213-.057l-.009-.001a1.749 1.749 0 0 0-.29-.023h-.017.001-.015c-.162 0-.317.027-.462.076l.01-.003a1.022 1.022 0 0 0-.356.208.944.944 0 0 0-.222.321l-.002.006a1.234 1.234 0 0 0 .003.887l-.003-.008a.938.938 0 0 0 .242.332c.099.09.219.161.352.208.154.046.316.063.479.052zm3.85-.041h1.319v.3h-1.722v-2.634h.412l-.009 2.334zm2.691.3h-.412v-2.634h.412v2.634zm1.537-2.621a.2.2 0 0 1 .063.047l1.766 1.985-.002-.047.002-.049v.002-1.963h.36v2.645h-.222a.196.196 0 0 1-.077-.016h.001a.23.23 0 0 1-.065-.05l-1.764-1.984v2.048h-.346v-2.634h.215c.023 0 .047.004.068.012zm5.23-.013v.289h-1.463v.87h1.186v.279h-1.186v.9h1.463v.289h-1.889v-2.628h1.889zM10.782 1.889l18.343 4.496v15.757l-18.343-4.494V1.888zM9.605.545v17.868l20.693 5.075V5.622L9.605.546z"/>
      <path d="M20.696 31.781 0 26.702V8.837l20.696 5.077v17.867z"/>
      <path d="m9.948 1.686 18.103 4.44-7.698 6.649L2.246 8.333l7.702-6.647zM9.605.545 0 8.837l20.696 5.077 9.603-8.294L9.606.545zM21.86 30.776l8.439-7.288-8.439-2.069v9.358z"/>
    </symbol>
    <symbol id="icon-mail" viewBox="0 0 43 32">
      <path d="M38.667 0H4C1.795 0 0 1.795 0 4v24c0 2.205 1.795 4 4 4h34.667c2.205 0 4-1.795 4-4V4c0-2.205-1.795-4-4-4zm0 2.667c.181 0 .355.037.512.104L21.334 18.238 3.489 2.771c.151-.065.327-.104.512-.104h34.667zm0 26.666H4A1.333 1.333 0 0 1 2.667 28V5.587l17.792 15.421c.233.203.539.327.875.327s.642-.124.876-.328l-.002.001L40 5.587V28c0 .736-.597 1.333-1.333 1.333z"/>
    </symbol>
    <symbol id="icon-fb" viewBox="0 0 32 32">
      <path d="M21.328 5.312h2.923V.224A36.478 36.478 0 0 0 20.144 0h-.157.008c-4.213 0-7.099 2.65-7.099 7.52V12H8.25v5.688h4.646V32h5.699V17.69h4.459l.709-5.688h-5.17V8.08c0-1.643.443-2.768 2.734-2.768z"/>
    </symbol>
    <symbol id="icon-inst" viewBox="0 0 32 32">
      <path d="M31.968 9.408c-.074-1.701-.349-2.869-.742-3.882a7.839 7.839 0 0 0-1.85-2.837l-.001-.001A7.906 7.906 0 0 0 26.597.861l-.054-.018C25.524.449 24.362.176 22.661.101 20.949.019 20.405 0 16.059 0c-4.344 0-4.888.019-6.595.094-1.699.074-2.869.349-3.88.742a7.847 7.847 0 0 0-2.839 1.85l-.001.001A7.9 7.9 0 0 0 .919 5.465l-.018.054C.506 6.538.232 7.7.157 9.401c-.082 1.712-.101 2.256-.101 6.602 0 4.344.019 4.888.094 6.595.075 1.701.35 2.869.744 3.882a7.915 7.915 0 0 0 1.849 2.837l.001.001c.8.813 1.77 1.443 2.832 1.843 1.019.395 2.182.67 3.882.744 1.707.075 2.251.094 6.595.094 4.346 0 4.89-.019 6.595-.094 1.701-.074 2.869-.349 3.882-.742a8.237 8.237 0 0 0 4.664-4.628l.019-.055c.394-1.019.669-2.182.744-3.882.075-1.707.093-2.251.093-6.595s-.006-4.888-.08-6.595zm-2.88 13.066c-.07 1.563-.333 2.406-.55 2.97a5.341 5.341 0 0 1-3.004 3.024l-.036.012c-.56.219-1.411.482-2.968.55-1.688.075-2.194.094-6.464.094-4.269 0-4.782-.019-6.464-.094-1.563-.069-2.406-.331-2.97-.55a4.953 4.953 0 0 1-1.836-1.192l-.001-.001a4.978 4.978 0 0 1-1.184-1.803L3.6 25.45c-.218-.563-.48-1.413-.549-2.97-.075-1.688-.094-2.195-.094-6.464 0-4.27.019-4.784.094-6.464.069-1.563.331-2.406.549-2.97a4.897 4.897 0 0 1 1.198-1.837l.002-.002a4.972 4.972 0 0 1 1.806-1.182l.034-.011c.56-.219 1.411-.48 2.968-.55 1.688-.074 2.195-.093 6.464-.093 4.275 0 4.782.019 6.464.093 1.563.069 2.406.331 2.97.55a4.91 4.91 0 0 1 1.837 1.194c.531.52.938 1.144 1.195 1.84.218.56.48 1.411.549 2.968.075 1.688.094 2.194.094 6.464 0 4.269-.019 4.768-.094 6.458z"/>
      <path d="M16.059 7.782a8.223 8.223 0 0 0-8.219 8.221 8.223 8.223 0 0 0 16.442.008v-.009a8.223 8.223 0 0 0-8.221-8.221zm0 13.552a5.333 5.333 0 0 1 .001-10.666h.001a5.334 5.334 0 1 1 0 10.668zM26.525 7.458a1.92 1.92 0 0 1-3.84 0 1.92 1.92 0 0 1 3.84 0z"/>
    </symbol>
    <symbol id="icon-in" viewBox="0 0 32 32">
      <path d="M31.992 32H32V20.262c0-5.741-1.235-10.163-7.947-10.163-3.227 0-5.392 1.77-6.277 3.45h-.093v-2.914h-6.365v21.363h6.627V21.42c0-2.786.528-5.48 3.978-5.48 3.398 0 3.45 3.179 3.45 5.658V32h6.619zM.528 10.635h6.635V32H.528V10.635zM3.843 0A3.843 3.843 0 0 0 0 3.843c0 2.12 1.722 3.878 3.843 3.878 2.12 0 3.842-1.757 3.842-3.878S5.965.002 3.844 0z"/>
    </symbol>
    <symbol id="icon-phone" viewBox="0 0 20 32">
      <path d="M17 0H3C1.346 0 0 1.346 0 3v26c0 1.654 1.346 3 3 3h14c1.654 0 3-1.346 3-3V3c0-1.654-1.346-3-3-3zM3 2h14a1 1 0 0 1 1 1v21H2V3a1 1 0 0 1 1-1zm14 28H3a1 1 0 0 1-1-1v-3h16v3a1 1 0 0 1-1 1z"/>
      <path d="M4.708 27.478a.889.889 0 0 1 .001 1.319l-.001.001a1.048 1.048 0 0 1-1.417 0l.001.001a.889.889 0 0 1-.001-1.319l.001-.001a1.048 1.048 0 0 1 1.417 0l-.001-.001z"/>
    </symbol>
    <symbol id="icon-astro" viewBox="0 0 72 32">
      <path fill="#f5f4fa" style="fill: var(--color1, #f5f4fa)" d="M1.067 0h69.867c0.589 0 1.067 0.478 1.067 1.067v29.867c0 0.589-0.478 1.067-1.067 1.067h-69.867c-0.589 0-1.067-0.478-1.067-1.067v-29.867c0-0.589 0.478-1.067 1.067-1.067z"></path>
      <path fill="#2196f3" style="fill: var(--color2, #2196f3)" d="M45.318 9.306c-0.037-0.111-0.133-0.194-0.249-0.211l-0.002-0-1.114-0.162-0.499-1.010c-0.105-0.213-0.453-0.213-0.558 0l-0.499 1.010-1.115 0.162c-0.152 0.022-0.267 0.151-0.267 0.308 0 0.088 0.036 0.167 0.094 0.223l0 0 0.807 0.786-0.19 1.11c-0.020 0.117 0.028 0.235 0.123 0.304 0.097 0.070 0.223 0.079 0.328 0.024l0.997-0.525 0.997 0.524c0.042 0.022 0.092 0.036 0.145 0.036 0.069 0 0.132-0.022 0.184-0.060l-0.001 0.001c0.096-0.069 0.144-0.187 0.123-0.304l-0.19-1.11 0.807-0.786c0.058-0.057 0.094-0.136 0.094-0.223 0-0.034-0.006-0.067-0.016-0.098l0.001 0.002zM43.882 10.080c-0.058 0.056-0.094 0.135-0.094 0.223 0 0.019 0.002 0.037 0.005 0.055l-0-0.002 0.111 0.65-0.583-0.307c-0.042-0.023-0.092-0.036-0.145-0.036s-0.103 0.013-0.147 0.037l0.002-0.001-0.583 0.307 0.111-0.65c0.003-0.016 0.005-0.034 0.005-0.053 0-0.087-0.036-0.166-0.094-0.222l-0-0-0.473-0.461 0.653-0.095c0.101-0.015 0.189-0.078 0.234-0.17l0.292-0.591 0.292 0.591c0.046 0.092 0.133 0.156 0.234 0.17l0.653 0.095-0.472 0.461zM41.911 18.638h-0.622v0.622h0.622v-0.622zM41.911 19.883h-0.622v0.622h0.622v-0.622zM42.533 19.26h-0.622v0.622h0.622v-0.622zM41.289 19.26h-0.622v0.622h0.622v-0.622zM39.733 22.060h-0.622v0.622h0.622v-0.622zM39.733 23.305h-0.622v0.622h0.622v-0.622zM40.356 22.683h-0.622v0.622h0.622v-0.622zM39.111 22.683h-0.622v0.622h0.622v-0.622zM36 20.816h-0.622v0.622h0.622v-0.622zM36 22.060h-0.622v0.622h0.622v-0.622zM36.622 21.438h-0.622v0.622h0.622v-0.622zM35.378 21.438h-0.622v0.622h0.622v-0.622zM30.089 10.238h-0.622v0.622h0.622v-0.622zM30.089 11.482h-0.622v0.622h0.622v-0.622zM30.711 10.86h-0.622v0.622h0.622v-0.622zM29.467 10.86h-0.622v0.622h0.622v-0.622z"></path>
      <path fill="#212121" style="fill: var(--color3, #212121)" d="M41.084 14.926c-0.163-0.22-0.408-0.371-0.688-0.41l-0.005-0.001c-0.045-0.007-0.096-0.011-0.148-0.011-0.24 0-0.46 0.081-0.636 0.218l0.002-0.002-0.73 0.56-1.107 0.827-0.792-0.316c1.413-0.634 2.4-2.046 2.4-3.687 0-2.23-1.822-4.045-4.061-4.045s-4.061 1.814-4.061 4.045c0 0.808 0.242 1.56 0.653 2.193l-1.615-0.014c-0.005 0-0.009 0.003-0.014 0.003-0.033 0.002-0.064 0.008-0.093 0.019l0.002-0.001c-0.007 0.003-0.015 0.004-0.022 0.008-0.004 0.001-0.007 0.002-0.011 0.004l-1.886 0.931c-0 0-0.001 0-0.001 0.001l-1.104 0.531c-0.014 0.006-0.026 0.013-0.038 0.021l0.001-0.001c-0.281 0.189-0.464 0.506-0.464 0.865 0 0.173 0.042 0.336 0.117 0.48l-0.003-0.006c0.128 0.247 0.346 0.433 0.609 0.516l0.007 0.002c0.094 0.031 0.201 0.048 0.313 0.048 0.18 0 0.349-0.046 0.496-0.126l-0.005 0.003 0.81-0.43 1.321-0.682 0.791-0.005-3.956 3.937c-0.177 0.175-0.286 0.417-0.286 0.685 0 0.001 0 0.002 0 0.002v-0c0 0.001 0 0.001 0 0.002 0 0.268 0.109 0.511 0.286 0.686l0 0c0.176 0.175 0.418 0.283 0.686 0.283 0.001 0 0.001 0 0.002 0h-0c0.25 0 0.498-0.094 0.689-0.283l0.767-0.763 1.015-0.758 0.525 0.523-1.809 1.802c-0.177 0.174-0.286 0.417-0.286 0.685 0 0.001 0 0.002 0 0.003v-0c0.001 0.536 0.436 0.971 0.973 0.971 0 0 0.001 0 0.001 0h-0c0.249 0 0.499-0.094 0.689-0.283l2.618-2.609c0.004-0.004 0.009-0.005 0.013-0.009l3.013-3.301 2.025 0.288c0.015 0.002 0.029 0.003 0.044 0.003 0.038 0 0.074-0.009 0.109-0.022 0.010-0.004 0.019-0.009 0.029-0.014 0.011-0.006 0.023-0.009 0.034-0.016l1.874-1.244c0.007-0.005 0.011-0.012 0.017-0.017 0.007-0.006 0.017-0.008 0.024-0.015l0.742-0.695c0.203-0.19 0.329-0.459 0.329-0.758 0-0.233-0.077-0.449-0.207-0.622l0.002 0.003zM27.909 17.033c-0.057 0.032-0.125 0.050-0.198 0.050-0.046 0-0.090-0.007-0.131-0.021l0.003 0.001c-0.172-0.054-0.295-0.212-0.295-0.398 0-0.138 0.067-0.26 0.17-0.336l0.001-0.001 0.766-0.369 0.185 0.539 0.077 0.227-0.579 0.307zM29.949 15.966l-0.903 0.467-0.149-0.435-0.107-0.313 1.182-0.584-0.023 0.866zM38.757 12.105c0 0.536-0.128 1.041-0.349 1.493l-2.439-1.108c-0.025-0.335-0.2-0.626-0.456-0.807l-0.003-0.002 0.854-2.835c1.387 0.441 2.394 1.735 2.394 3.26zM31.881 12.105c0-1.887 1.542-3.422 3.438-3.422 0.147 0 0.292 0.013 0.435 0.031l-0.835 2.773c-0.011 0-0.022-0.003-0.033-0.003-0.602 0-1.093 0.488-1.093 1.089s0.49 1.089 1.093 1.089c0.405 0 0.755-0.223 0.944-0.551l2.253 1.024c-0.627 0.843-1.63 1.394-2.763 1.394-1.896 0-3.438-1.535-3.438-3.422zM35.355 12.571c0 0.257-0.211 0.467-0.47 0.467-0 0-0.001 0-0.001 0-0.258 0-0.468-0.209-0.469-0.467v-0c0-0.257 0.211-0.467 0.47-0.467s0.47 0.209 0.47 0.467zM28.105 21.335c-0.064 0.063-0.152 0.103-0.249 0.103s-0.185-0.039-0.249-0.102l0 0c-0.064-0.063-0.103-0.15-0.103-0.246s0.039-0.183 0.103-0.246l0-0 0.561-0.559 0.497 0.494-0.559 0.557zM29.979 23.513c-0.064 0.063-0.152 0.103-0.249 0.103s-0.185-0.039-0.249-0.102l0 0c-0.064-0.063-0.103-0.15-0.103-0.246s0.039-0.183 0.103-0.246l0-0 0.562-0.559 0.497 0.494-0.56 0.557zM32.010 21.49l-0.001 0.001-1.030 1.027-0.497-0.494 1.030-1.025c0.023-0.023 0.038-0.051 0.052-0.079 0.004-0.008 0.012-0.015 0.015-0.023 0.010-0.024 0.011-0.050 0.015-0.075 0.002-0.014 0.008-0.028 0.008-0.043 0-0.021-0.007-0.041-0.012-0.061-0.004-0.019-0.004-0.038-0.011-0.056-0.014-0.031-0.032-0.057-0.053-0.081l0 0c-0.006-0.007-0.008-0.015-0.015-0.022h-0.001l-0.001-0.001-0.937-0.933c-0.010-0.010-0.023-0.014-0.034-0.023-0.015-0.012-0.031-0.023-0.049-0.033l-0.002-0.001c-0.015-0.007-0.034-0.014-0.053-0.018l-0.002-0c-0.017-0.006-0.038-0.010-0.059-0.012l-0.001-0c-0.004-0-0.009-0-0.013-0-0.015 0-0.029 0.001-0.044 0.003l0.002-0c-0.021 0.003-0.041 0.005-0.061 0.012s-0.037 0.016-0.055 0.026c-0.012 0.006-0.025 0.009-0.035 0.017l-1.035 0.772-0.525-0.523 1.399-1.392 2.543 2.502-0.541 0.536zM35.988 17.397c-0.009-0.001-0.017 0.002-0.026 0.002-0.005-0-0.010-0-0.016-0-0.037 0-0.072 0.006-0.105 0.018l0.002-0.001c-0.022 0.008-0.040 0.017-0.057 0.028l0.001-0.001c-0.018 0.011-0.033 0.022-0.049 0.036-0.007 0.006-0.017 0.010-0.023 0.017l-2.741 3.002-2.525-2.483 1.653-1.644c0.056-0.056 0.091-0.134 0.091-0.22 0-0.172-0.139-0.311-0.311-0.311-0.001 0-0.001 0-0.002 0h0l-1.294 0.007 0.016-0.938 1.811 0.015c0.737 0.756 1.766 1.226 2.904 1.226 0.001 0 0.001 0 0.002 0h-0c0.255 0 0.504-0.027 0.746-0.071 0.023 0.019 0.046 0.037 0.075 0.049l1.406 0.56 0.089 0.442 0.104 0.517-1.752-0.249zM38.345 17.501l-0.182-0.909 0.844-0.63 0.221 0.293 0.331 0.44-1.214 0.806zM40.535 15.849l-0.489 0.458-0.543-0.721 0.485-0.372c0.091-0.070 0.205-0.098 0.317-0.083 0.113 0.016 0.212 0.075 0.28 0.166 0.051 0.068 0.082 0.155 0.082 0.248 0 0.12-0.051 0.228-0.132 0.304l-0 0z"></path>
      <path fill="#212121" style="fill: var(--color3, #212121)" d="M34.601 17.484l-1.25-1.245c-0.056-0.056-0.134-0.091-0.219-0.091s-0.163 0.035-0.219 0.091v0l-1.25 1.245c-0.058 0.059-0.091 0.138-0.091 0.221s0.033 0.162 0.091 0.221l1.25 1.245c0.056 0.056 0.134 0.091 0.219 0.091s0.163-0.035 0.219-0.091v0l1.25-1.245c0.057-0.056 0.092-0.134 0.092-0.221s-0.035-0.164-0.092-0.221v0zM33.132 18.51l-0.809-0.805 0.809-0.806 0.809 0.805-0.809 0.805zM36.679 9.625l-0.15 0.604c0.041 0.010 1.014 0.263 1.014 1.253h0.622c0-1.177-0.972-1.73-1.486-1.858zM38.165 12.105h-0.622v0.622h0.622v-0.622z"></path>
    </symbol>
    <symbol id="icon-diagram" viewBox="0 0 72 32">
      <path fill="#f5f4fa" style="fill: var(--color1, #f5f4fa)" d="M1.067 0h69.867c0.589 0 1.067 0.478 1.067 1.067v29.867c0 0.589-0.478 1.067-1.067 1.067h-69.867c-0.589 0-1.067-0.478-1.067-1.067v-29.867c0-0.589 0.478-1.067 1.067-1.067z"></path>
      <path fill="#2196f3" style="fill: var(--color2, #2196f3)" d="M35.373 15.396h0.622v2.799h-0.622v-2.799zM37.861 16.64h0.622v1.555h-0.622v-1.555zM32.886 17.573h0.622v0.622h-0.622v-0.622zM31.020 17.262h0.622v0.933h-0.622v-0.933z"></path>
      <path fill="#212121" style="fill: var(--color3, #212121)" d="M27.599 23.17h14.926c0.515 0 0.933-0.418 0.933-0.933v-1.244c0-0.515-0.418-0.933-0.933-0.933v0h-0.311v-7.755l1.766-1.673c0.121 0.061 0.264 0.097 0.415 0.097 0.518 0 0.938-0.42 0.938-0.938s-0.42-0.938-0.938-0.938c-0.518 0-0.938 0.42-0.938 0.938 0 0.144 0.032 0.28 0.090 0.402l-0.002-0.006-1.331 1.262v-0.717c-0-0.515-0.418-0.933-0.933-0.933h-12.438c-0.515 0-0.933 0.418-0.933 0.933v0 9.329h-0.311c-0.515 0-0.933 0.418-0.933 0.933v1.244c0 0.515 0.418 0.933 0.933 0.933v0zM44.391 9.488c0.172 0 0.311 0.139 0.311 0.311s-0.139 0.311-0.311 0.311v0c-0.172 0-0.311-0.139-0.311-0.311s0.139-0.311 0.311-0.311v0zM28.532 10.732c0-0.172 0.139-0.311 0.311-0.311h12.438c0.172 0 0.311 0.139 0.311 0.311v1.306l-0.622 0.591v-1.275c0-0.172-0.139-0.311-0.311-0.311h-11.194c-0.172 0-0.311 0.139-0.311 0.311v7.774c0 0.172 0.139 0.311 0.311 0.311h11.194c0.171 0 0.311-0.139 0.311-0.311v-5.643l0.622-0.589v7.165h-13.060v-9.328zM31.331 14.774c-0.001 0-0.002 0-0.003 0-0.515 0-0.933 0.418-0.933 0.933s0.418 0.933 0.933 0.933c0.252 0 0.481-0.1 0.649-0.263l-0 0 1.081 0.542c0.040 0.021 0.088 0.033 0.139 0.033 0.092 0 0.175-0.040 0.232-0.104l0-0 2.298-2.585 2.259 1.693c0.121 0.091 0.29 0.081 0.4-0.023l1.963-1.859v4.743h-10.572v-7.152h10.572v1.552l-2.2 2.083-2.278-1.707c-0.051-0.039-0.116-0.062-0.187-0.062-0.092 0-0.175 0.040-0.232 0.104l-0 0-2.329 2.621-0.871-0.435c0.006-0.033 0.010-0.072 0.012-0.111l0-0.002c0-0.515-0.418-0.933-0.933-0.933v0zM31.642 15.707c0 0.172-0.139 0.311-0.311 0.311s-0.311-0.139-0.311-0.311v0c0-0.172 0.139-0.311 0.311-0.311s0.311 0.139 0.311 0.311v0zM33.507 20.682h3.11v0.311c0 0.172-0.139 0.311-0.311 0.311h-2.488c-0.172 0-0.311-0.139-0.311-0.311v0-0.311zM27.289 20.993c0-0.172 0.139-0.311 0.311-0.311h5.286v0.311c0 0.515 0.418 0.933 0.933 0.933h2.488c0.515 0 0.933-0.418 0.933-0.933v0-0.311h5.286c0.172 0 0.311 0.139 0.311 0.311v1.244c0 0.172-0.139 0.311-0.311 0.311h-14.926c-0.172 0-0.311-0.139-0.311-0.311v0-1.244z"></path>
    </symbol>
    <symbol id="icon-clock" viewBox="0 0 72 32">
      <path fill="#f5f4fa" style="fill: var(--color1, #f5f4fa)" d="M1.067 0h69.867c0.589 0 1.067 0.478 1.067 1.067v29.867c0 0.589-0.478 1.067-1.067 1.067h-69.867c-0.589 0-1.067-0.478-1.067-1.067v-29.867c0-0.589 0.478-1.067 1.067-1.067z"></path>
      <path fill="#212121" style="fill: var(--color3, #212121)" d="M44.923 15.592c-0.001-4.931-3.999-8.927-8.93-8.926s-8.927 3.999-8.926 8.93c0.001 3.96 2.58 7.317 6.149 8.485l0.063 0.018c0.035 0.011 0.072 0.017 0.109 0.017 0.070 0 0.139-0.019 0.2-0.055 0.079-0.047 0.138-0.121 0.165-0.208l2.255-7.146c0.614-0.003 1.11-0.501 1.11-1.115 0-0.002 0-0.004-0-0.006v0c-0.003-0.614-0.501-1.11-1.116-1.11-0.002 0-0.004 0-0.006 0h0c-0.174 0.001-0.339 0.042-0.485 0.115l0.006-0.003-2.978-2.979c-0.067-0.064-0.158-0.104-0.258-0.104-0.205 0-0.372 0.167-0.372 0.372 0 0.1 0.040 0.191 0.104 0.258l-0-0 2.977 2.98c-0.070 0.14-0.112 0.306-0.112 0.481 0 0.351 0.165 0.663 0.422 0.864l0.002 0.002-2.148 6.809c-4.245-1.564-6.419-6.273-4.855-10.519s6.273-6.419 10.519-4.855c4.245 1.564 6.419 6.273 4.855 10.518-0.784 2.089-2.335 3.737-4.301 4.631l-0.051 0.021-0.232-1.093c-0.037-0.17-0.186-0.295-0.364-0.295-0.095 0-0.182 0.036-0.248 0.095l0-0-2.238 1.998c-0.077 0.068-0.125 0.168-0.125 0.278 0 0.165 0.108 0.305 0.257 0.354l0.003 0.001 2.858 0.912c0.034 0.011 0.073 0.018 0.114 0.018 0.205 0 0.372-0.166 0.372-0.372 0-0.028-0.003-0.055-0.009-0.080l0 0.002-0.228-1.073c3.224-1.385 5.442-4.533 5.442-8.2 0-0.007 0-0.013-0-0.020v0.001zM35.995 15.221c0.205 0 0.372 0.167 0.372 0.372s-0.167 0.372-0.372 0.372v0c-0.205 0-0.372-0.167-0.372-0.372s0.167-0.372 0.372-0.372v0zM37.221 23.891l1.274-1.137 0.352 1.657-1.626-0.52z"></path>
      <path fill="#2196f3" style="fill: var(--color2, #2196f3)" d="M35.623 8.525v0.744c0 0.205 0.167 0.372 0.372 0.372s0.372-0.167 0.372-0.372v0-0.744c0-0.205-0.167-0.372-0.372-0.372s-0.372 0.167-0.372 0.372v0zM28.928 15.221c-0.205 0-0.372 0.167-0.372 0.372s0.167 0.372 0.372 0.372h0.744c0.205 0 0.372-0.167 0.372-0.372s-0.167-0.372-0.372-0.372h-0.744zM43.063 15.965c0.205 0 0.372-0.167 0.372-0.372s-0.167-0.372-0.372-0.372h-0.744c-0.205 0-0.372 0.167-0.372 0.372s0.167 0.372 0.372 0.372h0.744z"></path>
    </symbol>
    <symbol id="icon-antenna" viewBox="0 0 72 32">
      <path fill="#f5f4fa" style="fill: var(--color1, #f5f4fa)" d="M1.067 0h69.867c0.589 0 1.067 0.478 1.067 1.067v29.867c0 0.589-0.478 1.067-1.067 1.067h-69.867c-0.589 0-1.067-0.478-1.067-1.067v-29.867c0-0.589 0.478-1.067 1.067-1.067z"></path>
      <path fill="#212121" style="fill: var(--color3, #212121)" d="M44.618 19.557l-4.925-4.961 0.547-2.693c0.131 0.053 0.283 0.084 0.442 0.085h0.004c0.004 0 0.010 0 0.015 0 0.696 0 1.259-0.564 1.259-1.259s-0.564-1.259-1.259-1.259c-0.696 0-1.259 0.564-1.259 1.259 0 0.151 0.027 0.296 0.076 0.431l-0.003-0.009-2.893 0.353-4.719-4.744c-0.056-0.057-0.134-0.093-0.22-0.093h-0c-0.082 0.001-0.16 0.033-0.218 0.091l-0.882 0.877c-0.056 0.056-0.091 0.134-0.091 0.22s0.035 0.164 0.091 0.22v0l0.475 0.481c-1.839 3.382-1.242 7.571 1.47 10.303 0.025 0.024 0.054 0.043 0.085 0.057-0.019 0.096-0.030 0.206-0.030 0.319v3.61h-3.733c-0.859 0.001-1.555 0.697-1.556 1.555v0.622c0 0.172 0.139 0.311 0.311 0.311h14.311c0.172 0 0.311-0.139 0.311-0.311v-0.622c-0.001-0.859-0.697-1.554-1.555-1.555h-3.733v-1.599c0.585 0.123 1.181 0.185 1.778 0.187 1.505-0.002 2.919-0.387 4.152-1.063l-0.045 0.023 0.477 0.48c0.058 0.059 0.137 0.093 0.22 0.093 0.085-0.001 0.162-0.035 0.218-0.091h-0l0.882-0.877c0.056-0.056 0.091-0.134 0.091-0.22s-0.035-0.164-0.091-0.22v0zM40.247 10.303c0.112-0.111 0.267-0.18 0.438-0.18 0.343 0 0.622 0.278 0.622 0.622s-0.278 0.622-0.621 0.622h-0.002c-0.342-0.002-0.619-0.28-0.619-0.622 0-0.172 0.070-0.328 0.183-0.441l0-0h-0.001zM39.514 12.347l-0.349 1.718-0.686-0.69 1.035-1.029zM39.161 11.821l-1.12 1.114-0.866-0.871 1.986-0.242zM40.669 23.467c0.515 0 0.933 0.418 0.933 0.933v0 0.311h-13.689v-0.311c0-0.515 0.418-0.933 0.933-0.933v0h11.822zM36.314 22.222v0.622h-3.111v-0.622h3.111zM33.202 21.6v-2.365c0-0.755 0.698-1.369 1.555-1.369s1.556 0.614 1.556 1.369v2.365h-3.111zM36.936 20.611v-1.375c0-1.098-0.977-1.991-2.178-1.991-0.010-0-0.022-0-0.034-0-0.789 0-1.482 0.412-1.875 1.033l-0.005 0.009c-1.376-1.448-2.223-3.41-2.223-5.57 0-1.35 0.331-2.623 0.915-3.742l-0.021 0.045 10.851 10.913c-1.063 0.552-2.321 0.876-3.655 0.876-0.629 0-1.242-0.072-1.829-0.208l0.054 0.011zM43.521 20.212l-12.283-12.355 0.44-0.439 4.629 4.655c0.002 0 0.003 0.004 0.006 0.006l7.65 7.695-0.441 0.439z"></path>
      <path fill="#2196f3" style="fill: var(--color2, #2196f3)" d="M34.761 18.489h-0.003c-0 0-0.001 0-0.001 0-0.515 0-0.933 0.418-0.933 0.933s0.417 0.933 0.932 0.933h0.003c0 0 0.001 0 0.001 0 0.515 0 0.933-0.418 0.933-0.933s-0.417-0.933-0.932-0.933h-0zM34.978 19.643c-0.056 0.056-0.134 0.090-0.219 0.090-0.172 0-0.311-0.139-0.311-0.311 0-0.086 0.035-0.164 0.092-0.221l0-0c0.058-0.058 0.136-0.090 0.218-0.091 0.171 0.001 0.31 0.14 0.31 0.311 0 0.086-0.035 0.164-0.092 0.221l-0 0h0.003z"></path>
    </symbol>
    <symbol id="icon-company1" viewBox="0 0 28 32">
      <path fill="#afb1b8" style="fill: var(--color1, #afb1b8)" d="M4.085 0l4.771 4.517-8.857-0.005v21.915h23.149v-8.379l4.766 4.512v-22.559h-23.83zM22.939 17.517l-13.528-12.807h13.528v12.807zM18.739 23.22h-15.076v-14.738h1.066v13.74h14.011v0.997zM7.224 29.345l-0.557 1.147-0.557-1.147h-0.467l0.813 1.529v0.891h0.422v-0.891l0.811-1.529h-0.465zM7.924 31.765l0.196-0.564h0.938l0.197 0.564h0.439l-0.916-2.42h-0.378l-0.914 2.42h0.437zM8.588 29.859l0.351 1.004h-0.701l0.351-1.004zM10.806 30.804c-0.057 0.085-0.091 0.19-0.091 0.303 0 0.001 0 0.003 0 0.004v-0c0 0.204 0.072 0.37 0.214 0.497s0.336 0.19 0.575 0.19c0.239 0 0.445-0.065 0.618-0.195l0.136 0.161h0.468l-0.355-0.421c0.14-0.191 0.209-0.435 0.209-0.733h-0.351c0 0.163-0.034 0.311-0.101 0.444l-0.468-0.552 0.165-0.12c0.1-0.068 0.184-0.152 0.249-0.249l0.002-0.003c0.048-0.079 0.076-0.174 0.076-0.275 0-0.001 0-0.003-0-0.004v0c0-0.003 0-0.006 0-0.009 0-0.149-0.065-0.283-0.169-0.374l-0.001-0c-0.108-0.097-0.251-0.157-0.408-0.157-0.008 0-0.017 0-0.025 0l0.001-0c-0.195 0-0.35 0.056-0.465 0.166s-0.173 0.259-0.173 0.449c0 0.078 0.018 0.157 0.054 0.241 0.038 0.083 0.104 0.184 0.197 0.302-0.179 0.129-0.3 0.24-0.36 0.334zM11.898 31.34c-0.104 0.084-0.237 0.135-0.382 0.136h-0c-0.006 0-0.013 0-0.020 0-0.104 0-0.199-0.040-0.27-0.106l0 0c-0.067-0.066-0.108-0.157-0.108-0.259 0-0.005 0-0.009 0-0.014l-0 0.001c0-0.129 0.067-0.245 0.2-0.346l0.052-0.037 0.528 0.624zM11.464 30.267c-0.114-0.141-0.172-0.257-0.172-0.351 0-0.081 0.024-0.148 0.070-0.201 0.044-0.049 0.107-0.081 0.178-0.081 0.004 0 0.007 0 0.010 0l-0.001-0c0.003-0 0.006-0 0.009-0 0.067 0 0.127 0.026 0.173 0.068l-0-0c0.048 0.045 0.072 0.099 0.072 0.161 0 0.003 0 0.006 0 0.009 0 0.090-0.040 0.171-0.103 0.226l-0 0-0.052 0.041-0.184 0.127zM15.404 31.582c0.166-0.145 0.261-0.347 0.286-0.605h-0.419c-0.022 0.173-0.075 0.296-0.158 0.37s-0.208 0.112-0.372 0.112c-0.18 0-0.318-0.069-0.412-0.206s-0.14-0.337-0.14-0.599v-0.214c0.003-0.259 0.052-0.453 0.15-0.587 0.099-0.134 0.24-0.201 0.422-0.201 0.157 0 0.276 0.039 0.357 0.116s0.133 0.202 0.153 0.376h0.419c-0.027-0.265-0.121-0.47-0.285-0.615s-0.378-0.218-0.645-0.218c-0.198 0-0.373 0.048-0.525 0.142-0.152 0.097-0.271 0.234-0.345 0.396l-0.002 0.006c-0.077 0.169-0.122 0.367-0.122 0.576 0 0.010 0 0.020 0 0.030l-0-0.001v0.226c0.003 0.223 0.045 0.418 0.125 0.587s0.193 0.298 0.339 0.39c0.148 0.091 0.318 0.136 0.511 0.136 0.276 0 0.497-0.072 0.663-0.216zM17.875 31.243c0.082-0.18 0.123-0.388 0.123-0.625v-0.134c0-0.007 0-0.016 0-0.024 0-0.216-0.047-0.421-0.131-0.605l0.004 0.009c-0.077-0.171-0.199-0.31-0.35-0.406l-0.004-0.002c-0.152-0.095-0.326-0.143-0.524-0.143s-0.372 0.048-0.525 0.144c-0.152 0.095-0.27 0.233-0.354 0.414-0.079 0.175-0.125 0.38-0.125 0.595 0 0.011 0 0.021 0 0.032l-0-0.002v0.136c0.001 0.232 0.043 0.436 0.126 0.613 0.084 0.178 0.203 0.315 0.356 0.411 0.154 0.095 0.329 0.143 0.525 0.143 0.199 0 0.374-0.048 0.526-0.143 0.152-0.097 0.27-0.234 0.352-0.413zM17.425 29.874c0.102 0.143 0.152 0.349 0.152 0.618v0.126c0 0.272-0.050 0.48-0.151 0.622-0.099 0.142-0.242 0.213-0.429 0.213-0.005 0-0.011 0-0.017 0-0.171 0-0.323-0.086-0.413-0.216l-0.001-0.002c-0.104-0.145-0.155-0.351-0.155-0.617v-0.14c0.002-0.26 0.054-0.462 0.156-0.603 0.091-0.13 0.24-0.215 0.409-0.215 0.006 0 0.012 0 0.018 0l-0.001-0c0.187 0 0.33 0.072 0.431 0.214z"></path>
    </symbol>
    <symbol id="icon-company2" viewBox="0 0 25 32">
      <path fill="#afb1b8" style="fill: var(--color1, #afb1b8)" d="M10.532 1.806h-0.084c-0.129-0.008-0.258-0.011-0.388-0.014h-0.28c-0.244 0-0.494 0.006-0.741 0.018-0.008-0.001-0.018-0.001-0.028-0.001s-0.020 0-0.029 0.001l0.001-0c-2.376 0.138-4.582 0.733-6.576 1.696l0.104-0.045-0.266 0.128v13.626l0.623-0.212c0.546-0.188 1.129-0.357 1.731-0.513 1.488-0.398 3.202-0.638 4.967-0.661l0.014-0v1.79c-0.223 0.001-0.439 0.007-0.655 0.018h-0.052c-1.399 0.079-2.709 0.289-3.971 0.619l0.139-0.031c-1.734 0.441-3.254 1.050-4.666 1.83l0.1-0.051v-17.475c1.379-0.82 2.975-1.488 4.665-1.921l0.127-0.028c1.353-0.364 2.907-0.576 4.51-0.582h0.267c0.314 0.008 0.622 0.022 0.91 0.044 0.829 0.060 1.597 0.187 2.339 0.378l-0.090-0.020v1.762c-0.628-0.154-1.373-0.271-2.134-0.326l-0.045-0.003-0.044-0.004c-0.152-0.013-0.304-0.026-0.446-0.026zM13.633 3.607c0.391 0.030 0.796 0.044 1.205 0.044 1.689-0.007 3.324-0.228 4.881-0.639l-0.135 0.030c1.734-0.442 3.252-1.052 4.665-1.831l-0.101 0.051v17.163c-1.379 0.819-2.975 1.487-4.664 1.921l-0.127 0.028c-1.353 0.363-2.908 0.574-4.511 0.581h-0.004c-0.033 0-0.072 0-0.111 0-1.177 0-2.319-0.147-3.409-0.425l0.095 0.021v-17.275c0.265 0.062 0.537 0.118 0.814 0.164 0.455 0.077 0.934 0.133 1.401 0.167zM22.367 3.74l-0.623 0.209c-0.572 0.193-1.151 0.365-1.731 0.518-1.551 0.415-3.332 0.657-5.169 0.663h-0.004c-0.406 0-0.78-0.011-1.141-0.034l-0.497-0.033v14.017l0.426 0.037c0.395 0.035 0.803 0.052 1.214 0.052 1.45-0.006 2.853-0.198 4.189-0.553l-0.116 0.026c1.221-0.31 2.281-0.702 3.285-1.189l-0.102 0.044 0.266-0.128v-13.63z"></path>
      <path fill="#afb1b8" style="fill: var(--color1, #afb1b8)" d="M1.684 25.977c-0.167-0.173-0.401-0.281-0.661-0.281-0.011 0-0.023 0-0.034 0.001l0.002-0c-0.004-0-0.009-0-0.014-0-0.139 0-0.272 0.028-0.393 0.078l0.007-0.003c-0.237 0.095-0.42 0.28-0.51 0.512l-0.002 0.006c-0.049 0.123-0.073 0.254-0.071 0.386v2.335c-0.006 0.164 0.026 0.328 0.092 0.479 0.055 0.12 0.135 0.226 0.234 0.313 0.093 0.078 0.202 0.135 0.32 0.166 0.114 0.031 0.231 0.048 0.349 0.048 0.13 0.001 0.258-0.026 0.377-0.081 0.351-0.156 0.591-0.5 0.591-0.901v-0.261h-0.611v0.208c0 0.004 0 0.009 0 0.014 0 0.070-0.013 0.136-0.037 0.198l0.001-0.004c-0.021 0.052-0.051 0.095-0.089 0.132l-0 0c-0.070 0.054-0.159 0.088-0.255 0.089h-0c-0.011 0.001-0.023 0.002-0.036 0.002-0.103 0-0.194-0.050-0.25-0.127l-0.001-0.001c-0.051-0.082-0.082-0.182-0.082-0.289 0-0.008 0-0.016 0.001-0.024l-0 0.001v-2.177c-0.004-0.121 0.022-0.24 0.075-0.349 0.056-0.087 0.153-0.143 0.262-0.143 0.013 0 0.025 0.001 0.038 0.002l-0.001-0c0.003-0 0.007-0 0.012-0 0.107 0 0.201 0.052 0.26 0.131l0.001 0.001c0.063 0.082 0.101 0.187 0.101 0.3 0 0.005-0 0.009-0 0.014v-0.001 0.202h0.604v-0.238c0-0.003 0-0.007 0-0.011 0-0.143-0.027-0.28-0.077-0.405l0.003 0.007c-0.048-0.128-0.117-0.237-0.205-0.329l0 0zM5.31 25.951c-0.186-0.158-0.429-0.255-0.694-0.257h-0c-0.124 0-0.248 0.023-0.364 0.066-0.252 0.090-0.451 0.276-0.557 0.511l-0.002 0.006c-0.062 0.142-0.092 0.297-0.089 0.452v2.239c-0.004 0.158 0.026 0.314 0.089 0.458 0.055 0.121 0.135 0.228 0.236 0.313 0.094 0.086 0.203 0.154 0.322 0.197 0.117 0.043 0.24 0.065 0.364 0.066 0.267-0.001 0.51-0.1 0.695-0.264l-0.001 0.001c0.097-0.087 0.176-0.194 0.23-0.313 0.063-0.144 0.093-0.301 0.089-0.458v-2.239c0-0.006 0-0.013 0-0.020 0-0.156-0.033-0.305-0.092-0.439l0.003 0.007c-0.057-0.128-0.135-0.237-0.23-0.327l-0-0zM5.025 28.969c0.001 0.010 0.002 0.023 0.002 0.035 0 0.114-0.047 0.216-0.123 0.289l-0 0c-0.077 0.065-0.178 0.105-0.287 0.105s-0.21-0.040-0.288-0.105l0.001 0.001c-0.076-0.073-0.123-0.175-0.123-0.289 0-0.012 0.001-0.025 0.002-0.037l-0 0.002v-2.239c-0.001-0.010-0.001-0.022-0.001-0.034 0-0.113 0.047-0.216 0.123-0.289l0-0c0.077-0.065 0.178-0.105 0.287-0.105s0.21 0.040 0.288 0.105l-0.001-0.001c0.076 0.073 0.123 0.175 0.123 0.289 0 0.012-0.001 0.025-0.002 0.037l0-0.002v2.24zM10.072 29.969v-4.24h-0.586l-0.771 2.244h-0.010l-0.777-2.244h-0.58v4.239h0.606v-2.578h0.011l0.593 1.823h0.302l0.598-1.823h0.010v2.578h0.606zM13.513 26.027c-0.093-0.105-0.211-0.185-0.342-0.232-0.124-0.042-0.267-0.066-0.416-0.066-0.008 0-0.016 0-0.024 0l0.001-0h-0.9v4.24h0.604v-1.656h0.311c0.189 0.009 0.376-0.031 0.545-0.116 0.139-0.078 0.251-0.188 0.329-0.32l0.002-0.004c0.070-0.113 0.117-0.238 0.138-0.369 0.021-0.133 0.033-0.287 0.033-0.444 0-0.013-0-0.027-0-0.040l0 0.002c0.006-0.203-0.014-0.407-0.059-0.606-0.043-0.153-0.12-0.284-0.223-0.39l0 0zM13.201 27.319c-0.003 0.081-0.023 0.157-0.057 0.224l0.001-0.003c-0.035 0.065-0.089 0.116-0.154 0.147l-0.002 0.001c-0.075 0.034-0.162 0.054-0.254 0.054-0.011 0-0.022-0-0.033-0.001l0.002 0h-0.276v-1.441h0.311c0.009-0 0.019-0.001 0.029-0.001 0.088 0 0.172 0.020 0.247 0.055l-0.004-0.002c0.062 0.036 0.111 0.090 0.141 0.154l0.001 0.002c0.033 0.074 0.051 0.155 0.053 0.236v0.282c0 0.098 0.006 0.201 0 0.291h-0.006zM16.374 25.729h-0.495l-0.934 4.24h0.604l0.177-0.911h0.823l0.178 0.911h0.604l-0.958-4.24zM15.817 28.481l0.297-1.537h0.011l0.295 1.537h-0.604zM20.277 28.283h-0.011l-0.912-2.554h-0.581v4.24h0.604v-2.55h0.012l0.923 2.549h0.568v-4.239h-0.604v2.554zM23.968 25.729l-0.486 1.686h-0.012l-0.486-1.686h-0.639l0.83 2.448v1.791h0.604v-1.791l0.83-2.447h-0.64zM0 31.166h0.291v0.817h0.198v-0.817h0.289v-0.167h-0.778v0.168zM2.447 30.998l-0.382 0.985h0.21l0.081-0.224h0.392l0.084 0.224h0.215l-0.391-0.985h-0.21zM2.417 31.593l0.134-0.365 0.134 0.365h-0.268zM4.866 31.62h0.228v0.127c-0.063 0.051-0.145 0.082-0.234 0.083h-0c-0.004 0-0.009 0-0.014 0-0.079 0-0.149-0.037-0.195-0.094l-0-0c-0.046-0.065-0.073-0.147-0.073-0.234 0-0.008 0-0.016 0.001-0.023l-0 0.001c0-0.219 0.095-0.329 0.283-0.329 0.006-0.001 0.014-0.001 0.021-0.001 0.097 0 0.178 0.067 0.201 0.157l0 0.001 0.194-0.038c-0.042-0.192-0.18-0.289-0.417-0.289-0.004-0-0.008-0-0.013-0-0.127 0-0.244 0.048-0.331 0.127l0-0c-0.088 0.087-0.143 0.208-0.143 0.342 0 0.013 0 0.026 0.002 0.038l-0-0.002c-0 0.007-0 0.015-0 0.023 0 0.132 0.048 0.254 0.127 0.347l-0.001-0.001c0.087 0.090 0.209 0.146 0.343 0.146 0.011 0 0.021-0 0.032-0.001l-0.001 0c0.005 0 0.010 0 0.016 0 0.155 0 0.296-0.060 0.402-0.157l-0 0v-0.388h-0.426v0.166zM7.337 30.998h-0.199v0.985h0.689v-0.167h-0.49v-0.817zM9.426 30.998h-0.199v0.985h0.199v-0.985zM11.469 31.655l-0.404-0.657h-0.193v0.985h0.185v-0.643l0.396 0.643h0.198v-0.985h-0.182v0.658zM13.315 31.549h0.49v-0.167h-0.49v-0.215h0.527v-0.168h-0.727v0.985h0.747v-0.167h-0.548v-0.266zM17.792 31.386h-0.388v-0.388h-0.197v0.984h0.197v-0.431h0.388v0.431h0.198v-0.985h-0.198v0.388zM19.649 31.549h0.492v-0.167h-0.492v-0.215h0.529v-0.168h-0.726v0.985h0.746v-0.167h-0.548v-0.266zM22.168 31.55c0.171-0.027 0.258-0.118 0.258-0.274 0.001-0.008 0.002-0.018 0.002-0.028 0-0.079-0.038-0.148-0.098-0.191l-0.001-0c-0.073-0.037-0.159-0.059-0.25-0.059-0.014 0-0.027 0-0.040 0.001l0.002-0h-0.417v0.984h0.198v-0.412h0.039c0.005-0 0.010-0 0.016-0 0.039 0 0.076 0.008 0.109 0.023l-0.002-0.001c0.029 0.018 0.053 0.042 0.070 0.072l0.215 0.313h0.236l-0.12-0.192c-0.054-0.096-0.128-0.175-0.215-0.235l-0.002-0.002zM21.969 31.413h-0.146v-0.247h0.156c0.012-0.001 0.027-0.002 0.042-0.002 0.057 0 0.111 0.009 0.163 0.026l-0.004-0.001c0.026 0.024 0.043 0.058 0.043 0.096 0 0.042-0.020 0.080-0.052 0.104l-0 0c-0.049 0.016-0.106 0.025-0.164 0.025-0.013 0-0.026-0-0.039-0.001l0.002 0zM24.068 31.549h0.49v-0.167h-0.49v-0.215h0.529v-0.168h-0.729v0.985h0.747v-0.167h-0.548v-0.266z"></path>
    </symbol>
    <symbol id="icon-company3" viewBox="0 0 65 32">
      <path fill="#afb1b8" style="fill: var(--color1, #afb1b8)" d="M10.016 9.983h-0.002c-1.827 0-3.308 1.316-3.308 2.94v0.002c0 1.624 1.481 2.94 3.308 2.94h0.002c1.827 0 3.308-1.317 3.308-2.94v-0.002c0-1.624-1.481-2.941-3.308-2.941zM34.434 9.044c-0.005-2.255-1.016-4.418-2.81-6.012s-4.226-2.493-6.763-2.498c-2.539 0.004-4.972 0.902-6.767 2.497s-2.806 3.757-2.811 6.013v12.437s19.15-1.896 19.152-12.434v-0.002zM0 25.562c0.005 1.57 0.709 3.073 1.957 4.183s2.94 1.735 4.706 1.739c1.765-0.005 3.457-0.63 4.706-1.739s1.952-2.613 1.957-4.181v-8.654s-13.324 1.32-13.324 8.652zM6.662 27.112c-0.345 0-0.682-0.091-0.969-0.261-0.279-0.164-0.499-0.401-0.638-0.686l-0.004-0.009c-0.084-0.173-0.132-0.377-0.132-0.592 0-0.107 0.012-0.212 0.035-0.312l-0.002 0.009c0.067-0.301 0.233-0.578 0.477-0.794 0.243-0.214 0.547-0.364 0.882-0.423l0.011-0.002c0.103-0.019 0.221-0.030 0.341-0.030 0.239 0 0.469 0.043 0.68 0.122l-0.013-0.004c0.319 0.117 0.592 0.316 0.783 0.571s0.294 0.555 0.294 0.861c0.001 0.204-0.043 0.407-0.131 0.596-0.094 0.198-0.221 0.366-0.376 0.503l-0.002 0.001c-0.162 0.145-0.354 0.259-0.567 0.338-0.199 0.075-0.428 0.119-0.668 0.119-0 0-0.001 0-0.001 0h0v-0.006zM18.842 24.336v3.25h-0.67v-3.251h0.67zM20.137 25.725v0.522h-1.478v-0.522h1.478zM20.293 24.336v0.525h-1.634v-0.525h1.634zM23.351 25.886v0.154c0 0.247-0.034 0.469-0.101 0.665-0.064 0.194-0.161 0.361-0.285 0.504l0.002-0.002c-0.122 0.137-0.267 0.242-0.437 0.315-0.168 0.073-0.355 0.11-0.56 0.11s-0.391-0.037-0.561-0.11c-0.172-0.076-0.318-0.182-0.436-0.314l-0.001-0.001c-0.124-0.141-0.222-0.309-0.285-0.492l-0.003-0.010c-0.064-0.19-0.101-0.408-0.101-0.636 0-0.010 0-0.020 0-0.030l-0 0.002v-0.155c0-0.248 0.034-0.47 0.101-0.665s0.162-0.363 0.283-0.502c0.119-0.134 0.265-0.241 0.429-0.314l0.008-0.003c0.17-0.073 0.357-0.109 0.561-0.109 0.206 0 0.392 0.036 0.56 0.109 0.17 0.073 0.315 0.179 0.437 0.317 0.123 0.139 0.219 0.306 0.286 0.503 0.069 0.194 0.103 0.416 0.103 0.665zM22.674 26.040v-0.158c0-0.173-0.015-0.325-0.046-0.456-0.028-0.125-0.076-0.236-0.141-0.334l0.002 0.004c-0.057-0.084-0.132-0.152-0.22-0.199l-0.003-0.002c-0.084-0.044-0.184-0.069-0.29-0.069-0.004 0-0.008 0-0.012 0h0.001c-0.114 0-0.213 0.023-0.302 0.069-0.090 0.049-0.165 0.117-0.22 0.199l-0.001 0.002c-0.061 0.095-0.108 0.206-0.134 0.324l-0.001 0.007c-0.030 0.129-0.047 0.278-0.047 0.43 0 0.009 0 0.018 0 0.027v-0.001 0.158c0 0.171 0.015 0.322 0.047 0.455 0.030 0.131 0.077 0.242 0.138 0.333 0.057 0.085 0.132 0.153 0.22 0.201l0.003 0.002c0.088 0.046 0.188 0.069 0.302 0.069s0.213-0.023 0.301-0.069c0.091-0.049 0.165-0.118 0.22-0.201l0.001-0.002c0.061-0.096 0.108-0.207 0.135-0.326l0.001-0.007c0.030-0.133 0.046-0.284 0.046-0.455zM25.525 26.736c0-0.002 0-0.004 0-0.007 0-0.054-0.010-0.105-0.028-0.152l0.001 0.003c-0.020-0.052-0.052-0.096-0.094-0.129l-0.001-0c-0.056-0.046-0.12-0.086-0.188-0.117l-0.005-0.002c-0.087-0.040-0.194-0.081-0.304-0.115l-0.019-0.005c-0.171-0.055-0.31-0.109-0.445-0.17l0.026 0.010c-0.133-0.060-0.247-0.13-0.352-0.211l0.004 0.003c-0.096-0.076-0.175-0.169-0.234-0.274l-0.002-0.005c-0.054-0.102-0.085-0.224-0.085-0.353 0-0.006 0-0.011 0-0.017v0.001c-0-0.003-0-0.007-0-0.010 0-0.131 0.033-0.254 0.091-0.362l-0.002 0.004c0.059-0.112 0.143-0.207 0.25-0.286 0.107-0.081 0.234-0.142 0.379-0.185 0.148-0.043 0.309-0.065 0.485-0.065 0.24 0 0.449 0.043 0.627 0.13s0.317 0.204 0.415 0.354c0.1 0.151 0.15 0.322 0.15 0.516h-0.665c0-0.003 0-0.007 0-0.010 0-0.088-0.023-0.171-0.062-0.242l0.001 0.003c-0.041-0.074-0.102-0.133-0.176-0.17l-0.002-0.001c-0.081-0.040-0.176-0.064-0.277-0.064-0.008 0-0.016 0-0.023 0l0.001-0c-0.007-0-0.014-0-0.022-0-0.096 0-0.188 0.020-0.272 0.055l0.005-0.002c-0.072 0.030-0.131 0.078-0.174 0.14l-0.001 0.001c-0.036 0.054-0.058 0.12-0.058 0.192 0 0.002 0 0.003 0 0.005v-0c0 0.055 0.014 0.105 0.040 0.149 0.034 0.050 0.075 0.091 0.123 0.124l0.002 0.001c0.055 0.039 0.122 0.076 0.203 0.11s0.174 0.068 0.28 0.101c0.177 0.053 0.332 0.114 0.466 0.181 0.136 0.067 0.248 0.142 0.339 0.226s0.16 0.178 0.206 0.283 0.069 0.226 0.069 0.36c0 0.009 0.001 0.020 0.001 0.031 0 0.259-0.126 0.488-0.32 0.63l-0.002 0.002c-0.104 0.078-0.229 0.136-0.373 0.176-0.14 0.039-0.3 0.061-0.466 0.061-0.006 0-0.013-0-0.019-0h0.001c-0 0-0 0-0.001 0-0.169 0-0.332-0.023-0.488-0.066l0.013 0.003c-0.162-0.045-0.304-0.111-0.432-0.198l0.005 0.003c-0.125-0.086-0.227-0.197-0.301-0.326l-0.003-0.005c-0.076-0.134-0.114-0.293-0.114-0.475h0.672c0 0.101 0.015 0.187 0.047 0.257 0.030 0.068 0.074 0.126 0.13 0.169l0.001 0.001c0.058 0.043 0.127 0.075 0.202 0.093l0.004 0.001c0.080 0.019 0.168 0.029 0.264 0.029 0.007 0 0.015 0 0.023 0 0.094 0 0.185-0.018 0.267-0.052l-0.005 0.002c0.132-0.053 0.223-0.18 0.223-0.328 0-0.002 0-0.003-0-0.005v0zM28.103 24.336v3.25h-0.667v-3.251h0.667zM29.103 24.336v0.525h-2.651v-0.525h2.651zM31.666 27.064v0.523h-1.73v-0.523h1.73zM30.155 24.336v3.25h-0.67v-3.251h0.67zM31.44 25.66v0.509h-1.504v-0.509h1.504zM31.663 24.336v0.525h-1.727v-0.525h1.727zM32.056 24.336h1.211c0.249 0 0.462 0.038 0.642 0.112s0.318 0.184 0.414 0.33c0.097 0.146 0.145 0.325 0.145 0.538 0 0.174-0.029 0.324-0.088 0.45-0.059 0.125-0.143 0.228-0.246 0.309l-0.002 0.001c-0.107 0.081-0.23 0.148-0.364 0.193l-0.009 0.003-0.212 0.112h-1.054l-0.005-0.523h0.784c0.006 0 0.014 0 0.022 0 0.098 0 0.191-0.023 0.274-0.064l-0.004 0.002c0.075-0.039 0.135-0.099 0.173-0.172l0.001-0.002c0.038-0.072 0.060-0.157 0.060-0.247 0-0.004-0-0.008-0-0.013v0.001c0-0.005 0-0.010 0-0.016 0-0.093-0.021-0.18-0.060-0.258l0.002 0.003c-0.039-0.076-0.1-0.136-0.175-0.173l-0.002-0.001c-0.081-0.039-0.175-0.061-0.276-0.061-0.008 0-0.015 0-0.023 0l0.001-0h-0.542v2.726h-0.67v-3.251zM33.874 27.586l-0.741-1.448 0.708-0.005 0.75 1.422v0.030h-0.716zM37.389 26.428h-0.828v-0.523h0.828c0.008 0 0.017 0.001 0.027 0.001 0.104 0 0.202-0.023 0.29-0.065l-0.004 0.002c0.077-0.040 0.138-0.102 0.176-0.177l0.001-0.002c0.035-0.078 0.055-0.168 0.055-0.263s-0.020-0.186-0.057-0.267l0.002 0.004c-0.038-0.084-0.099-0.153-0.175-0.2l-0.002-0.001c-0.083-0.048-0.182-0.077-0.288-0.077-0.009 0-0.017 0-0.026 0.001l0.001-0h-0.596v2.726h-0.67v-3.25h1.266c0.254 0 0.472 0.046 0.654 0.139 0.183 0.091 0.323 0.216 0.42 0.377s0.145 0.344 0.145 0.552c0 0.21-0.048 0.391-0.145 0.545-0.097 0.152-0.236 0.271-0.419 0.354s-0.4 0.125-0.655 0.125zM41.25 27.064v0.523h-1.73v-0.523h1.73zM39.739 24.336v3.25h-0.67v-3.251h0.67zM41.025 25.66v0.509h-1.504v-0.509h1.504zM41.248 24.336v0.525h-1.727v-0.525h1.727zM43.139 24.336v3.25h-0.667v-3.251h0.667zM44.139 24.336v0.525h-2.651v-0.525h2.651zM46.702 27.064v0.523h-1.73v-0.523h1.73zM45.19 24.336v3.25h-0.67v-3.251h0.67zM46.476 25.661v0.509h-1.505v-0.509h1.505zM46.699 24.337v0.525h-1.728v-0.525h1.728zM47.092 24.337h1.213c0.248 0 0.462 0.038 0.64 0.112 0.181 0.074 0.319 0.184 0.416 0.33s0.145 0.325 0.145 0.538c0 0.174-0.030 0.324-0.089 0.45-0.059 0.124-0.143 0.228-0.246 0.309l-0.002 0.001c-0.107 0.082-0.231 0.148-0.364 0.193l-0.009 0.003-0.212 0.112h-1.054l-0.004-0.523h0.783c0.007 0 0.015 0 0.022 0 0.098 0 0.191-0.023 0.274-0.064l-0.004 0.002c0.075-0.040 0.134-0.099 0.173-0.172l0.001-0.002c0.038-0.072 0.061-0.158 0.061-0.249 0-0.004-0-0.007-0-0.011v0.001c0-0.004 0-0.009 0-0.014 0-0.093-0.022-0.181-0.060-0.26l0.002 0.003c-0.039-0.076-0.1-0.136-0.174-0.173l-0.002-0.001c-0.081-0.039-0.176-0.061-0.276-0.061-0.008 0-0.015 0-0.023 0l0.001-0h-0.542v2.726h-0.67v-3.252zM48.909 27.587l-0.741-1.448 0.709-0.005 0.749 1.422v0.030h-0.716zM51.713 26.737c0-0.002 0-0.004 0-0.007 0-0.054-0.010-0.105-0.028-0.152l0.001 0.003c-0.020-0.052-0.052-0.096-0.093-0.129l-0.001-0c-0.056-0.046-0.12-0.086-0.189-0.117l-0.005-0.002c-0.087-0.040-0.194-0.081-0.304-0.115l-0.019-0.005c-0.171-0.055-0.31-0.109-0.445-0.17l0.026 0.010c-0.133-0.060-0.248-0.13-0.353-0.211l0.004 0.003c-0.096-0.076-0.175-0.169-0.234-0.274l-0.002-0.005c-0.054-0.102-0.086-0.224-0.086-0.353 0-0.006 0-0.011 0-0.017v0.001c-0-0.003-0-0.007-0-0.010 0-0.131 0.033-0.254 0.091-0.362l-0.002 0.004c0.060-0.112 0.143-0.207 0.251-0.286 0.107-0.081 0.233-0.142 0.379-0.185s0.309-0.065 0.484-0.065c0.24 0 0.45 0.043 0.627 0.13 0.179 0.086 0.317 0.204 0.415 0.354 0.1 0.151 0.15 0.322 0.15 0.516h-0.665c0-0.003 0-0.007 0-0.010 0-0.088-0.023-0.171-0.062-0.242l0.001 0.003c-0.041-0.074-0.102-0.133-0.176-0.17l-0.002-0.001c-0.081-0.040-0.176-0.064-0.277-0.064-0.008 0-0.015 0-0.023 0l0.001-0c-0.007-0-0.015-0-0.023-0-0.096 0-0.188 0.020-0.272 0.055l0.005-0.002c-0.072 0.030-0.132 0.078-0.174 0.14l-0.001 0.001c-0.036 0.054-0.058 0.12-0.058 0.192 0 0.002 0 0.003 0 0.005v-0c0 0.055 0.014 0.105 0.040 0.149 0.034 0.050 0.075 0.091 0.123 0.124l0.002 0.001c0.055 0.039 0.123 0.076 0.203 0.11s0.173 0.068 0.279 0.101c0.177 0.053 0.332 0.114 0.466 0.181 0.136 0.067 0.248 0.142 0.339 0.226s0.16 0.178 0.206 0.283 0.069 0.226 0.069 0.36c0 0.141-0.027 0.267-0.082 0.379s-0.135 0.206-0.238 0.283c-0.104 0.078-0.229 0.136-0.373 0.176s-0.305 0.061-0.484 0.061c-0.161 0-0.32-0.021-0.475-0.062-0.162-0.045-0.304-0.111-0.432-0.198l0.005 0.003c-0.125-0.086-0.227-0.197-0.301-0.326l-0.003-0.005c-0.076-0.134-0.114-0.293-0.114-0.475h0.672c0 0.101 0.015 0.187 0.047 0.257 0.030 0.068 0.074 0.126 0.13 0.169l0.001 0.001c0.058 0.043 0.127 0.075 0.202 0.093l0.004 0.001c0.081 0.019 0.168 0.029 0.264 0.029 0.007 0 0.015 0 0.023 0 0.094 0 0.185-0.018 0.267-0.052l-0.005 0.002c0.132-0.053 0.223-0.18 0.223-0.328 0-0.002 0-0.003-0-0.005v0z"></path>
    </symbol>
    <symbol id="icon-company4" viewBox="0 0 34 32">
      <path fill="#afb1b8" style="fill: var(--color1, #afb1b8)" d="M5.643 31.315c0.012 0 0.024 0.003 0.035 0.008s0.021 0.011 0.030 0.018l-0-0 0.166 0.158c-0.13 0.129-0.289 0.232-0.468 0.302-0.184 0.069-0.397 0.109-0.62 0.109-0.015 0-0.030-0-0.045-0.001l0.002 0c-0.213 0.004-0.425-0.030-0.622-0.101-0.182-0.066-0.338-0.163-0.47-0.286l0.001 0.001c-0.128-0.121-0.231-0.268-0.301-0.432l-0.003-0.008c-0.067-0.162-0.106-0.35-0.106-0.548 0-0.006 0-0.012 0-0.018v0.001c-0-0.009-0-0.019-0-0.029 0-0.388 0.168-0.737 0.436-0.977l0.001-0.001c0.142-0.124 0.312-0.222 0.498-0.287 0.205-0.069 0.423-0.103 0.642-0.101 0.012-0 0.026-0 0.040-0 0.199 0 0.39 0.034 0.568 0.096l-0.012-0.004c0.165 0.062 0.316 0.149 0.447 0.255l-0.139 0.169c-0.010 0.012-0.022 0.022-0.035 0.030l-0.001 0c-0.014 0.008-0.031 0.013-0.048 0.013-0.003 0-0.005-0-0.008-0l0 0c-0.023-0.001-0.043-0.007-0.062-0.018l0.001 0-0.074-0.046-0.104-0.058c-0.095-0.046-0.205-0.081-0.321-0.1l-0.007-0.001c-0.069-0.012-0.149-0.018-0.23-0.018-0.006 0-0.013 0-0.019 0h0.001c-0.005-0-0.010-0-0.015-0-0.16 0-0.313 0.028-0.455 0.079l0.009-0.003c-0.14 0.049-0.26 0.122-0.363 0.214l0.001-0.001c-0.104 0.098-0.183 0.213-0.235 0.339-0.054 0.128-0.085 0.276-0.085 0.432 0 0.006 0 0.011 0 0.017v-0.001c-0 0.006-0 0.012-0 0.019 0 0.157 0.031 0.307 0.088 0.444l-0.003-0.008c0.051 0.125 0.13 0.239 0.231 0.338 0.095 0.091 0.213 0.164 0.345 0.21 0.136 0.049 0.281 0.073 0.427 0.072 0.085 0.001 0.17-0.004 0.254-0.014 0.211-0.022 0.4-0.106 0.55-0.234l-0.001 0.001c0.021-0.017 0.049-0.028 0.078-0.029h0zM10.441 30.517c0 0.005 0 0.011 0 0.017 0 0.197-0.041 0.384-0.116 0.553l0.003-0.009c-0.074 0.172-0.18 0.317-0.311 0.435l-0.001 0.001c-0.138 0.123-0.302 0.22-0.481 0.283l-0.010 0.003c-0.189 0.064-0.406 0.101-0.632 0.101s-0.443-0.037-0.646-0.105l0.014 0.004c-0.188-0.067-0.351-0.165-0.489-0.288l0.001 0.001c-0.133-0.12-0.24-0.267-0.313-0.432l-0.003-0.008c-0.071-0.166-0.112-0.359-0.112-0.562s0.041-0.396 0.116-0.572l-0.004 0.010c0.071-0.165 0.178-0.315 0.316-0.442 0.139-0.121 0.305-0.215 0.488-0.277 0.188-0.065 0.406-0.103 0.632-0.103s0.443 0.038 0.646 0.107l-0.014-0.004c0.184 0.065 0.351 0.162 0.49 0.286 0.137 0.126 0.244 0.274 0.314 0.435 0.077 0.181 0.115 0.373 0.112 0.565zM10.005 30.517c0-0.007 0-0.015 0-0.024 0-0.154-0.029-0.301-0.082-0.436l0.003 0.008c-0.101-0.26-0.308-0.459-0.566-0.548l-0.007-0.002c-0.137-0.047-0.295-0.074-0.459-0.074s-0.322 0.027-0.469 0.077l0.010-0.003c-0.136 0.049-0.254 0.121-0.352 0.214l0-0c-0.097 0.092-0.174 0.205-0.223 0.331l-0.002 0.006c-0.050 0.134-0.079 0.289-0.079 0.451s0.029 0.317 0.082 0.46l-0.003-0.009c0.101 0.261 0.309 0.46 0.569 0.547l0.007 0.002c0.296 0.097 0.622 0.097 0.918 0 0.133-0.046 0.253-0.119 0.35-0.211 0.1-0.098 0.175-0.213 0.222-0.338 0.056-0.145 0.082-0.298 0.079-0.451zM13.715 30.99l0.043 0.101c0.017-0.036 0.031-0.069 0.048-0.101 0.019-0.039 0.037-0.072 0.056-0.103l-0.002 0.004 1.061-1.677c0.021-0.029 0.040-0.047 0.061-0.053s0.047-0.009 0.073-0.009c0.005 0 0.010 0 0.015 0l-0.001-0h0.314v2.728h-0.372v-2.090c-0.001-0.014-0.002-0.031-0.002-0.047s0.001-0.033 0.002-0.049l-0 0.002-1.069 1.701c-0.015 0.026-0.036 0.047-0.062 0.061l-0.001 0c-0.026 0.014-0.057 0.023-0.090 0.023-0.001 0-0.001 0-0.002 0h-0.060c-0.001 0-0.001 0-0.002 0-0.033 0-0.063-0.008-0.090-0.023l0.001 0c-0.026-0.014-0.047-0.035-0.061-0.061l-0-0.001-1.099-1.711v2.189h-0.359v-2.722h0.313c0.004-0 0.009-0 0.015-0 0.026 0 0.051 0.003 0.075 0.010l-0.002-0c0.026 0.011 0.046 0.030 0.058 0.053l1.084 1.678c0.020 0.028 0.038 0.060 0.053 0.094l0.001 0.004zM17.71 30.855v1.021h-0.414v-2.723h0.926c0.175-0.003 0.349 0.018 0.517 0.059 0.134 0.034 0.259 0.091 0.366 0.17 0.089 0.070 0.159 0.16 0.205 0.262l0.002 0.004c0.050 0.111 0.073 0.23 0.071 0.349 0 0.005 0 0.011 0 0.017 0 0.246-0.117 0.465-0.299 0.603l-0.002 0.001c-0.107 0.082-0.232 0.143-0.368 0.18-0.14 0.040-0.301 0.064-0.468 0.064-0.012 0-0.023-0-0.035-0l-0.501-0.008zM17.71 30.562h0.503c0.109 0.002 0.218-0.013 0.322-0.041 0.089-0.026 0.166-0.066 0.234-0.119l-0.002 0.001c0.117-0.097 0.191-0.241 0.191-0.404 0-0.002 0-0.004-0-0.007v0c0.001-0.009 0.001-0.019 0.001-0.029 0-0.070-0.015-0.136-0.043-0.195l0.001 0.003c-0.035-0.074-0.084-0.136-0.144-0.185l-0.001-0.001c-0.139-0.093-0.31-0.149-0.493-0.149-0.023 0-0.046 0.001-0.069 0.003l0.003-0h-0.503v1.122zM23.294 31.88h-0.328c-0.002 0-0.004 0-0.006 0-0.032 0-0.061-0.009-0.086-0.026l0.001 0c-0.023-0.016-0.042-0.037-0.054-0.062l-0-0.001-0.282-0.658h-1.419l-0.293 0.658c-0.026 0.053-0.079 0.088-0.141 0.088-0.001 0-0.003-0-0.004-0h-0.329l1.246-2.728h0.432l1.263 2.728zM21.237 30.867h1.172l-0.494-1.11c-0.038-0.084-0.069-0.169-0.094-0.256l-0.048 0.142c-0.014 0.043-0.030 0.084-0.046 0.116l-0.49 1.108zM25.089 29.166c0.024 0.011 0.046 0.028 0.062 0.048l1.818 2.056v-2.117h0.372v2.728h-0.207c-0.001 0-0.003 0-0.005 0-0.029 0-0.057-0.006-0.082-0.017l0.001 0c-0.026-0.013-0.048-0.030-0.066-0.050l-0-0-1.816-2.054c0.001 0.014 0.001 0.030 0.001 0.047s-0.001 0.033-0.002 0.049l0-0.002v2.027h-0.372v-2.728h0.22c0.025 0 0.051 0.005 0.075 0.013zM30.402 30.795v1.083h-0.415v-1.082l-1.149-1.643h0.372c0.003-0 0.006-0 0.009-0 0.030 0 0.057 0.009 0.081 0.023l-0.001-0c0.023 0.018 0.042 0.039 0.056 0.062l0.718 1.060c0.029 0.046 0.054 0.087 0.075 0.126s0.038 0.078 0.053 0.115l0.053-0.117c0.021-0.043 0.044-0.084 0.071-0.124l0.709-1.067c0.015-0.022 0.033-0.041 0.053-0.058l0-0c0.023-0.017 0.051-0.027 0.082-0.027 0.003 0 0.006 0 0.008 0l-0-0h0.376l-1.15 1.65zM13.509 24.576c0.181 0.020 0.363 0.036 0.549 0.050 2.803-1.090 5.174-2.872 6.818-5.126s2.485-4.878 2.421-7.546l-3.090-2.683c0.629 2.84 0.335 5.775-0.848 8.478s-3.208 5.067-5.849 6.827z"></path>
      <path fill="#afb1b8" style="fill: var(--color1, #afb1b8)" d="M12.407 24.451l0.083 0.015c2.822-1.755 4.973-4.203 6.176-7.031s1.402-5.904 0.571-8.83l-4.4-3.822c1.779 3.142 2.496 6.659 2.065 10.141-0.43 3.482-1.989 6.786-4.495 9.528zM27.328 15.106c-0.747 2.931-2.563 5.574-5.177 7.538-0.714 0.543-1.519 1.053-2.367 1.49l-0.092 0.043c2.129-0.543 4.085-1.504 5.718-2.808s2.901-2.917 3.703-4.714l-1.784-1.549z"></path>
      <path fill="#afb1b8" style="fill: var(--color1, #afb1b8)" d="M26.628 14.674l-2.54-2.207c-0.049 2.517-0.872 4.976-2.385 7.122s-3.66 3.902-6.217 5.084h0.012c0.57 0 1.139-0.030 1.705-0.088 2.39-0.848 4.502-2.197 6.146-3.926s2.771-3.785 3.278-5.985zM12.774 3.17l-3.031-2.636c-2.709 0.91-5.039 2.509-6.686 4.588s-2.531 4.542-2.539 7.066c0.010 2.789 1.090 5.495 3.070 7.69 1.979 2.194 4.744 3.754 7.858 4.43 2.779-2.942 4.407-6.578 4.646-10.379s-0.924-7.57-3.319-10.758zM33.63 14.268c-0.011-3.308-1.528-6.478-4.221-8.818s-6.342-3.658-10.15-3.668c-0.008 0-0.018-0-0.028-0-1.831 0-3.59 0.305-5.231 0.867l0.114-0.034 18.556 16.122c0.605-1.313 0.958-2.849 0.96-4.468v-0.001z"></path>
    </symbol>
    <symbol id="icon-company5" viewBox="0 0 43 32">
      <path fill="#afb1b8" style="fill: var(--color1, #afb1b8)" d="M3.239 26.373c0.166 0.188 0.254 0.424 0.25 0.665 0.001 0.015 0.001 0.033 0.001 0.050 0 0.149-0.033 0.29-0.093 0.416l0.003-0.006c-0.072 0.152-0.172 0.279-0.296 0.378l-0.002 0.002c-0.282 0.194-0.631 0.31-1.007 0.31-0.041 0-0.082-0.001-0.123-0.004l0.006 0h-1.977v-4.214h1.936c0.034-0.002 0.074-0.004 0.115-0.004 0.356 0 0.688 0.106 0.965 0.287l-0.007-0.004c0.125 0.097 0.225 0.218 0.289 0.354 0.065 0.138 0.095 0.286 0.086 0.436 0.011 0.232-0.068 0.461-0.225 0.644-0.15 0.168-0.358 0.283-0.59 0.33 0.262 0.044 0.499 0.172 0.667 0.361zM0.92 25.737h0.828c0.188 0.012 0.374-0.037 0.526-0.14 0.060-0.050 0.108-0.113 0.14-0.184l0.001-0.003c0.024-0.054 0.038-0.118 0.038-0.185 0-0.014-0.001-0.028-0.002-0.042l0 0.002c0.001-0.011 0.001-0.023 0.001-0.035 0-0.068-0.014-0.133-0.040-0.192l0.001 0.003c-0.033-0.075-0.079-0.137-0.138-0.187l-0.001-0.001c-0.134-0.091-0.298-0.145-0.476-0.145-0.023 0-0.046 0.001-0.069 0.003l0.003-0h-0.815v1.106zM2.355 27.353c0.065-0.051 0.116-0.116 0.151-0.19l0.001-0.003c0.028-0.059 0.044-0.128 0.044-0.202 0-0.012-0-0.023-0.001-0.035l0 0.002c0.001-0.009 0.001-0.020 0.001-0.031 0-0.075-0.017-0.147-0.047-0.21l0.001 0.003c-0.037-0.078-0.090-0.143-0.154-0.193l-0.001-0.001c-0.142-0.097-0.318-0.154-0.507-0.154-0.019 0-0.039 0.001-0.058 0.002l0.003-0h-0.868v1.16h0.88c0.197 0.010 0.394-0.041 0.556-0.146zM7.197 28.185l-1.076-1.648h-0.405v1.648h-0.927v-4.215h1.755c0.037-0.003 0.081-0.004 0.125-0.004 0.413 0 0.794 0.136 1.1 0.366l-0.005-0.003c0.245 0.229 0.394 0.53 0.417 0.85 0.002 0.026 0.003 0.057 0.003 0.088 0 0.307-0.109 0.589-0.291 0.808l0.002-0.002c-0.218 0.224-0.506 0.378-0.829 0.427l-0.008 0.001 1.147 1.684h-1.008zM5.715 25.963h0.758c0.526 0 0.79-0.212 0.79-0.638 0.001-0.010 0.001-0.022 0.001-0.034 0-0.080-0.016-0.156-0.045-0.225l0.001 0.004c-0.036-0.086-0.087-0.159-0.15-0.218l-0-0c-0.144-0.109-0.326-0.174-0.523-0.174-0.026 0-0.051 0.001-0.077 0.003l0.003-0h-0.767l0.009 1.283zM12.262 27.336h-1.846l-0.326 0.849h-0.972l1.695-4.168h1.051l1.689 4.168h-0.971l-0.319-0.848zM12.015 26.698l-0.675-1.779-0.675 1.779h1.349zM18.602 28.185h-0.919l-2.063-2.866v2.866h-0.918v-4.216h0.918l2.063 2.883v-2.883h0.919v4.216zM23.852 27.176c-0.191 0.318-0.48 0.577-0.833 0.744-0.358 0.168-0.777 0.267-1.219 0.267-0.026 0-0.053-0-0.079-0.001l0.004 0h-1.637v-4.215h1.637c0.023-0.001 0.050-0.001 0.077-0.001 0.441 0 0.859 0.096 1.235 0.267l-0.019-0.008c0.352 0.163 0.642 0.419 0.832 0.735 0.189 0.343 0.288 0.722 0.288 1.106s-0.099 0.763-0.288 1.106zM22.8 27.075c0.25-0.261 0.404-0.616 0.406-1.006v-0c0-0.369-0.144-0.726-0.406-1.006-0.285-0.226-0.65-0.362-1.047-0.362-0.037 0-0.074 0.001-0.11 0.004l0.005-0h-0.639v2.729h0.639c0.032 0.002 0.069 0.003 0.106 0.003 0.396 0 0.761-0.136 1.050-0.364l-0.004 0.003zM12.838 0.522s11.873 4.104 11.621 10.043v10.045s-11.864-4.106-11.617-10.045l-0.004-10.043zM35.037 18.259c2.243-1.413 4.836-2.288 7.544-2.545v-3.146c-3.12 1.102-5.767 3.098-7.544 5.691z"></path>
      <path fill="#afb1b8" style="fill: var(--color1, #afb1b8)" d="M33.69 19.207c1.835-3.384 5.017-5.995 8.891-7.297v-9.061s-16.909 5.846-16.552 14.304v14.302s0.754-0.261 1.939-0.752c0-0.457 0-0.918 0.054-1.382 0.349-3.926 2.388-7.564 5.667-10.115z"></path>
      <path fill="#afb1b8" style="fill: var(--color1, #afb1b8)" d="M32.082 24.52c0.089-0.992 0.287-1.973 0.592-2.928-2.043 2.203-3.279 4.936-3.536 7.816-0.025 0.272-0.039 0.543-0.045 0.824 1.41-0.617 2.478-1.142 3.524-1.703l-0.273 0.133c-0.3-1.362-0.388-2.757-0.263-4.142zM32.754 24.571c-0.033 0.348-0.052 0.752-0.052 1.161 0 0.917 0.095 1.811 0.276 2.674l-0.015-0.084c4.62-2.531 9.811-6.442 9.61-11.168v-0.412c-3.301 0.338-6.388 1.659-8.79 3.76-0.53 1.19-0.895 2.571-1.026 4.019l-0.004 0.051z"></path>
    </symbol>
    <symbol id="icon-company6" viewBox="0 0 67 32">
      <path fill="#afb1b8" style="fill: var(--color1, #afb1b8)" d="M33.724 15.223c-0.271-0.35-0.435-0.795-0.435-1.278 0-0.048 0.002-0.095 0.005-0.142l-0 0.006v-2.051c0-0.628 0.142-1.106 0.428-1.433 0.284-0.327 0.774-0.489 1.468-0.488 0.652 0 1.116 0.139 1.389 0.417 0.299 0.355 0.444 0.789 0.411 1.226v0.482h-1.166v-0.489c0.004-0.159-0.007-0.319-0.034-0.477-0.020-0.116-0.081-0.214-0.166-0.283l-0.001-0.001c-0.105-0.070-0.234-0.112-0.373-0.112-0.018 0-0.035 0.001-0.052 0.002l0.002-0c-0.015-0.001-0.033-0.002-0.050-0.002-0.147 0-0.283 0.044-0.397 0.12l0.003-0.002c-0.096 0.077-0.166 0.185-0.193 0.309l-0.001 0.004c-0.030 0.14-0.047 0.302-0.047 0.467 0 0.014 0 0.028 0 0.042l-0-0.002v2.488c-0.019 0.24 0.033 0.48 0.149 0.698 0.061 0.075 0.139 0.133 0.23 0.168l0.004 0.001c0.068 0.027 0.148 0.043 0.231 0.043 0.025 0 0.050-0.001 0.074-0.004l-0.003 0c0.015 0.001 0.032 0.002 0.049 0.002 0.136 0 0.262-0.043 0.365-0.116l-0.002 0.001c0.090-0.075 0.153-0.18 0.174-0.299l0-0.003c0.027-0.165 0.040-0.332 0.036-0.498v-0.505h1.167v0.461c0.003 0.036 0.004 0.079 0.004 0.122 0 0.443-0.153 0.85-0.41 1.171l0.003-0.004c-0.268 0.304-0.725 0.457-1.397 0.457s-1.179-0.163-1.466-0.501zM38.583 15.245c-0.295-0.32-0.442-0.784-0.442-1.399v-2.157c0-0.609 0.147-1.070 0.442-1.383s0.787-0.469 1.478-0.467c0.686 0 1.176 0.156 1.471 0.467 0.294 0.313 0.444 0.774 0.444 1.383v2.156c0 0.609-0.149 1.077-0.449 1.398s-0.787 0.481-1.466 0.481-1.181-0.163-1.479-0.479zM40.604 14.727c0.106-0.199 0.154-0.419 0.14-0.638v-2.641c0.001-0.021 0.002-0.046 0.002-0.071 0-0.203-0.052-0.394-0.142-0.561l0.003 0.006c-0.062-0.076-0.142-0.135-0.234-0.17l-0.004-0.001c-0.068-0.027-0.146-0.042-0.229-0.042-0.028 0-0.056 0.002-0.083 0.005l0.003-0c-0.024-0.003-0.051-0.005-0.079-0.005-0.083 0-0.161 0.015-0.234 0.043l0.004-0.002c-0.096 0.036-0.177 0.096-0.239 0.171l-0.001 0.001c-0.107 0.195-0.154 0.41-0.14 0.626v2.652c-0.014 0.22 0.033 0.439 0.14 0.639 0.068 0.067 0.152 0.121 0.246 0.158 0.089 0.036 0.192 0.056 0.3 0.056s0.211-0.021 0.305-0.058l-0.006 0.002c0.095-0.037 0.178-0.091 0.246-0.158v-0.013zM43.381 9.902h1.256l0.944 3.979 0.967-3.979h1.222l0.124 5.743h-0.904l-0.097-3.991-0.932 3.991h-0.725l-0.966-4.006-0.090 4.006h-0.913l0.114-5.743zM49.301 9.902h1.957c1.127 0 1.691 0.543 1.691 1.631 0 1.041-0.594 1.562-1.781 1.56h-0.666v2.552h-1.208l0.007-5.744zM50.973 12.356c0.119 0.014 0.24 0.004 0.356-0.028 0.114-0.031 0.22-0.083 0.309-0.154 0.139-0.194 0.2-0.422 0.174-0.649 0.001-0.019 0.001-0.041 0.001-0.063 0-0.163-0.022-0.321-0.062-0.471l0.003 0.013c-0.019-0.061-0.050-0.114-0.089-0.158l0 0c-0.042-0.047-0.093-0.086-0.149-0.114l-0.003-0.001c-0.141-0.059-0.304-0.094-0.476-0.094-0.022 0-0.044 0.001-0.066 0.002l0.003-0h-0.469v1.717h0.469zM54.692 9.902h1.297l1.331 5.743h-1.126l-0.263-1.324h-1.157l-0.27 1.324h-1.143l1.331-5.743zM55.8 13.655l-0.452-2.411-0.452 2.411h0.903zM58.394 9.902h0.846l1.618 3.276v-3.276h1.003v5.743h-0.804l-1.628-3.42v3.42h-1.036l0.002-5.743zM64.209 13.454l-1.345-3.545h1.133l0.821 2.278 0.77-2.278h1.109l-1.329 3.546v2.19h-1.159v-2.19zM35.59 18.156v0.3h-0.986v2.334h-0.413v-2.334h-0.991v-0.3h2.389zM38.679 20.79h-0.319c-0.003 0-0.006 0-0.009 0-0.030 0-0.058-0.009-0.081-0.025l0 0c-0.023-0.015-0.041-0.035-0.052-0.060l-0-0.001-0.285-0.626h-1.367l-0.284 0.626c-0.009 0.028-0.024 0.052-0.044 0.071l-0 0c-0.023 0.016-0.052 0.025-0.082 0.025-0.003 0-0.005-0-0.008-0h-0.318l1.208-2.634h0.42l1.223 2.624zM36.679 19.812h1.14l-0.484-1.072c-0.031-0.067-0.061-0.15-0.086-0.235l-0.003-0.014c-0.017 0.050-0.031 0.098-0.045 0.14l-0.044 0.11-0.478 1.070zM40.762 20.531c0.076 0.004 0.151 0.004 0.228 0 0.065-0.006 0.129-0.016 0.193-0.031 0.059-0.012 0.117-0.028 0.174-0.048 0.053-0.018 0.107-0.042 0.161-0.065v-0.592h-0.483c-0.001 0-0.003 0-0.004 0-0.023 0-0.044-0.008-0.061-0.022l0 0c-0.008-0.006-0.014-0.013-0.018-0.021l-0-0c-0.004-0.007-0.006-0.015-0.006-0.024 0-0.001 0-0.002 0-0.003v0-0.202h0.937v1.010c-0.147 0.091-0.316 0.165-0.496 0.211l-0.013 0.003c-0.1 0.026-0.2 0.043-0.302 0.055-0.117 0.011-0.235 0.016-0.353 0.016-0.005 0-0.010 0-0.015 0-0.212 0-0.416-0.036-0.606-0.102l0.013 0.004c-0.186-0.065-0.347-0.158-0.486-0.277l0.002 0.002c-0.129-0.114-0.234-0.253-0.308-0.409l-0.003-0.008c-0.070-0.156-0.111-0.338-0.111-0.529 0-0.006 0-0.012 0-0.019v0.001c-0-0.005-0-0.010-0-0.016 0-0.193 0.040-0.377 0.112-0.543l-0.003 0.009c0.069-0.156 0.176-0.299 0.311-0.417 0.138-0.119 0.302-0.211 0.484-0.273 0.206-0.068 0.427-0.101 0.647-0.098 0.112 0 0.225 0.007 0.336 0.023 0.098 0.014 0.195 0.036 0.287 0.067 0.085 0.027 0.166 0.063 0.242 0.105 0.074 0.041 0.144 0.087 0.211 0.137l-0.116 0.163c-0.010 0.015-0.023 0.027-0.039 0.035l-0.001 0c-0.016 0.009-0.035 0.014-0.055 0.014h-0c-0.028-0.001-0.053-0.008-0.075-0.021l0.001 0c-0.049-0.023-0.088-0.044-0.126-0.066l0.007 0.004c-0.045-0.025-0.099-0.049-0.154-0.069l-0.008-0.002c-0.062-0.022-0.136-0.042-0.213-0.057l-0.009-0.001c-0.087-0.015-0.188-0.023-0.29-0.023-0.006 0-0.011 0-0.017 0h0.001c-0.004-0-0.010-0-0.015-0-0.162 0-0.317 0.027-0.462 0.076l0.010-0.003c-0.134 0.046-0.256 0.117-0.356 0.208-0.095 0.090-0.171 0.199-0.222 0.321l-0.002 0.006c-0.051 0.13-0.081 0.281-0.081 0.439s0.030 0.309 0.084 0.448l-0.003-0.008c0.053 0.124 0.135 0.237 0.242 0.332 0.099 0.090 0.219 0.161 0.352 0.208 0.154 0.046 0.316 0.063 0.479 0.052zM44.612 20.49h1.319v0.3h-1.722v-2.634h0.412l-0.009 2.334zM47.303 20.79h-0.412v-2.634h0.412v2.634zM48.84 18.169c0.025 0.012 0.046 0.028 0.063 0.047l0 0 1.766 1.985c-0.001-0.014-0.002-0.030-0.002-0.047s0.001-0.033 0.002-0.049l-0 0.002v-1.963h0.36v2.645h-0.208c-0.004 0-0.009 0-0.014 0-0.027 0-0.054-0.006-0.077-0.016l0.001 0c-0.025-0.013-0.047-0.030-0.065-0.050l-0-0-1.764-1.984v2.048h-0.346v-2.634h0.215c0.023 0 0.047 0.004 0.068 0.012zM54.070 18.156v0.289h-1.463v0.87h1.186v0.279h-1.186v0.9h1.463v0.289h-1.889v-2.628h1.889zM10.782 1.889l18.343 4.496v15.757l-18.343-4.494v-15.76zM9.605 0.545v17.868l20.693 5.075v-17.866l-20.693-5.076z"></path>
      <path fill="#afb1b8" style="fill: var(--color1, #afb1b8)" d="M20.696 31.781l-20.696-5.079v-17.865l20.696 5.077v17.867z"></path>
      <path fill="#afb1b8" style="fill: var(--color1, #afb1b8)" d="M9.948 1.686l18.103 4.44-7.698 6.649-18.107-4.442 7.702-6.647zM9.605 0.545l-9.605 8.292 20.696 5.077 9.603-8.294-20.693-5.075zM21.86 30.776l8.439-7.288-8.439-2.069v9.358z"></path>
    </symbol>
    <symbol id="icon-twit" viewBox="0 0 32 32">
      <path d="M32 6.078c-1.1.493-2.376.857-3.713 1.028l-.068.007a6.556 6.556 0 0 0 2.873-3.579l.013-.046a12.88 12.88 0 0 1-4.076 1.573l-.084.014A6.558 6.558 0 0 0 15.6 9.557v.004c0 .52.043 1.021.152 1.496-5.454-.266-10.28-2.88-13.522-6.861a6.524 6.524 0 0 0-.902 3.313v.001a6.57 6.57 0 0 0 2.914 5.451 6.453 6.453 0 0 1-2.994-.823l.033.017v.072a6.592 6.592 0 0 0 5.213 6.44l.043.008a6.403 6.403 0 0 1-1.662.215h-.061.003c-.419 0-.843-.024-1.242-.112.85 2.598 3.261 4.509 6.13 4.57a13.093 13.093 0 0 1-8.122 2.8H1.57h.001-.062c-.531 0-1.055-.034-1.569-.099l.061.006c2.826 1.846 6.287 2.944 10.004 2.944h.063-.003c12.072 0 18.672-10 18.672-18.669 0-.288-.01-.57-.024-.848a13.203 13.203 0 0 0 3.258-3.355l.03-.047z"/>
    </symbol>
  </defs>
</svg>
